<svg xmlns="http://www.w3.org/2000/svg" width="600" height="1300"><style>.box{fill:#b3cde0;stroke:#03396c}.text{font-size:14px;text-anchor:middle;fill:#03396c}.arrow{fill:none;stroke:#03396c;marker-end:url(#arrowhead)}</style><defs><marker id="arrowhead" markerHeight="7" markerWidth="10" orient="auto" refX="0" refY="3.5"><path d="m0 0 10 3.5L0 7z"/></marker></defs><path d="M200 20h200v40H200z" class="box"/><text x="300" y="45" class="text">Source Code</text><path d="M300 60v40" class="arrow"/><path d="M200 100h200v40H200z" class="box"/><text x="300" y="125" class="text">Lexical Analysis</text><path d="M300 140v40" class="arrow"/><path d="M200 180h200v40H200z" class="box"/><text x="300" y="205" class="text">Tokens</text><path d="M300 220v40" class="arrow"/><path d="M200 260h200v40H200z" class="box"/><text x="300" y="285" class="text">Syntax Analysis</text><path d="M300 300v40" class="arrow"/><path d="M200 340h200v40H200z" class="box"/><text x="300" y="365" class="text">Parse Tree</text><path d="M300 400v40" class="arrow"/><path d="M200 440h200v40H200z" class="box"/><text x="300" y="465" class="text">Semantic Analysis</text><path d="M300 480v40" class="arrow"/><path d="M200 520h200v40H200z" class="box"/><text x="300" y="545" class="text">Abstract Syntax Tree</text><path d="M300 580v40" class="arrow"/><path d="M200 620h200v40H200z" class="box"/><text x="300" y="645" class="text">Intermediate Code Generation</text><path d="M300 660v40" class="arrow"/><path d="M200 700h200v40H200z" class="box"/><text x="300" y="725" class="text">Intermediate Representation</text><path d="M300 740v40" class="arrow"/><path d="M200 780h200v40H200z" class="box"/><text x="300" y="805" class="text">Optimization</text><path d="M300 820v40" class="arrow"/><path d="M200 860h200v40H200z" class="box"/><text x="300" y="885" class="text">Optimized Intermediate Code</text><path d="M300 900v40" class="arrow"/><path d="M200 940h200v40H200z" class="box"/><text x="300" y="965" class="text">Code Generation</text><path d="M300 1000v40" class="arrow"/><path d="M200 1040h200v40H200z" class="box"/><text x="300" y="1065" class="text">Machine Code</text><path d="M300 1080v40" class="arrow"/><path d="M200 1120h200v40H200z" class="box"/><text x="300" y="1145" class="text">Linking</text><path d="M300 1160v40" class="arrow"/><path d="M200 1200h200v40H200z" class="box"/><text x="300" y="1225" class="text">Executable</text></svg>