<svg xmlns="http://www.w3.org/2000/svg" width="24" height="24" fill="currentColor" class="bi bi-github" viewBox="0 0 16 16"><path d="M8 .198a8 8 0 0 0-2.528 15.588c.4.075.548-.174.548-.386 0-.192-.007-.876-.013-1.59-2.1.455-2.698-1.007-2.698-1.007-.364-.925-.888-1.171-.888-1.171-.724-.495.055-.486.055-.486.802.056 1.224.823 1.224.823.713 1.221 1.868.867 2.317.663.073-.517.28-.867.508-1.065-1.77-.2-3.629-.885-3.629-3.938 0-.87.31-1.582.823-2.141-.083-.2-.357-1.014.078-2.115 0 0 .67-.215 2.2.82A7.7 7.7 0 0 1 8 4.733c.678.003 1.36.092 2 .266 1.53-1.036 2.2-.82 2.2-.82.436 1.101.161 1.915.079 2.115.514.559.823 1.271.823 2.141 0 3.066-1.864 3.738-3.644 3.94.287.247.54.737.54 1.485 0 1.073-.01 1.938-.01 2.203 0 .214.148.465.552.386A8 8 0 0 0 8 .198"/></svg>