<svg xmlns="http://www.w3.org/2000/svg" xml:space="preserve" viewBox="0 0 192 192"><path d="M142.993 162.21c-1.94 5.986-6.015 8.07-11.617 8.053-17.159-.05-34.319.02-51.478-.044-8.352-.03-12.16-3.915-12.208-12.308-.054-9.496-.092-18.993.03-28.487.04-3.138-.679-4.75-4.249-5.272-5.062-.74-7.706-4.529-7.767-10.071-.092-8.496-.097-16.993 0-25.489.032-2.825-.356-5.035-3.081-6.744-3.016-1.891-4.167-5.05-3.956-8.662.11-1.877.045-3.958 2.509-4.17 2.394-.207 2.983 1.588 3.158 3.604.085.98.164 2.037.585 2.893.808 1.647 2.279 2.364 4.134 2.16 1.861-.205 3.089-1.202 3.48-3.046.206-.972.108-2.01.338-2.973.374-1.565 1.22-2.795 3.051-2.726 1.876.07 2.61 1.454 2.741 3.018.343 4.053-.706 7.787-4.197 10.09-2.629 1.734-3.205 3.862-3.157 6.734.127 7.495.05 14.993.041 22.49-.002 1.843-.015 3.679 1.109 5.28.799 1.14 1.79 2.041 3.27 1.956 1.84-.105 1.69-1.624 2.036-2.908 1.655-6.157 4.965-8.57 11.542-8.891 4.026-.197 8.19.767 11.913-.615.506-2.443-.912-2.881-2.117-3.377-3.66-1.506-6.04-4.11-6.805-8.008-.439-2.234-1.755-3.285-3.815-4.064-4.526-1.713-6.334-5.321-5.67-9.948.628-4.367 3.578-6.568 7.874-7.037 3.292-.36 5.602-2.304 6.836-5.113 1.186-2.7-.766-4.509-2.63-6.387-3.899-3.931-3.64-9.285.305-12.82 3.335-2.99 9.118-2.746 12.27.517 3.397 3.517 3.303 8.93-.384 12.534-1.433 1.4-3.508 2.49-2.504 4.861.926 2.189 3.18 1.353 4.898 1.39 4.496.1 8.996.046 13.494.021 1.313-.007 2.846.19 3.447-1.367.623-1.617-.164-2.867-1.447-3.901-.772-.622-1.539-1.303-2.124-2.093-2.802-3.788-2.36-8.679.997-11.756 3.401-3.12 9.026-3.049 12.27.155 3.104 3.066 3.402 8.31.675 11.876-5.4 7.058-4.234 10.214 4.51 12.176 4.062.912 6.385 3.53 6.909 7.545.535 4.099-1.285 7.291-5.028 8.867-2.713 1.142-4.36 2.613-4.872 5.597-.513 2.99-2.698 4.854-5.216 6.36-1.33.794-3.384.795-3.54 2.948.5 1.833 1.986 1.609 3.266 1.633 2.997.057 6-.046 8.995.05 6.44.21 9.431 2.484 11.306 8.563.424 1.375.147 3.292 2.328 3.18 2.163-.112 3.143-1.647 3.478-3.636.638-3.796.776-7.614.533-11.456-.168-2.658-.413-5.326-.327-7.98.159-4.893.2-9.435-4.503-12.85-2.473-1.797-2.694-5.231-2.326-8.326.167-1.404.808-2.644 2.35-2.87 1.82-.265 2.73.98 3.246 2.485.266.774.263 1.638.404 2.457.415 2.427 1.864 4.168 4.282 4.065 2.417-.104 3.756-1.997 4.009-4.404.229-2.176.137-4.93 3.171-4.59 3.266.365 2.541 3.393 2.513 5.626-.042 3.232-1.582 5.895-4.228 7.534-2.393 1.481-2.77 3.415-2.746 5.89.072 7.662.077 15.326-.004 22.989-.066 6.236-2.636 9.677-8.729 10.894-2.953.59-3.255 2.11-3.259 4.51a2141 2141 0 0 1-.319 33.387m-28.99-44.804c-2.302-3.606-5.684-4.221-9.78-4.584-7.822-.693-14.221 2.863-20.747 5.902-4.074 1.897-5.689 6.108-5.36 10.522.293 3.942 2.33 7.387 4.326 11.34 14.396-15.419 29.262-16.397 44.587-2.443 1.742-1.738 1.675-3.704.236-4.621-6.01-3.832-7.165-11.518-13.262-16.116m-5.376-19.83c1.664-.005 3.328.015 4.991-.018 8.042-.158 9.125-1.263 9.164-9.343.012-2.496-.077-4.994.001-7.487.13-4.151-1.932-6.263-5.965-6.305-7.653-.08-15.307-.05-22.96.016-3.611.032-5.532 1.949-5.567 5.602-.036 3.826.023 7.653-.048 11.479-.07 3.793 1.897 5.417 5.506 5.529 4.652.144 9.302.347 14.878.526m-6.723 5.725c-1.576.316-3.868-.788-4.216 2.059 4.337 2.241 12.739 1.913 15.597-.803-3.368-2.303-7.071-.84-11.381-1.256m9.672 35.286c1.555-.463 1.927-1.314.656-2.458-3.083-2.778-10.566-2.099-14.318 1.716 4.547 1.023 8.957-1.123 13.662.742"/><path d="M111.45 87.878c1.974.758 2.99 1.826 2.388 3.574-.491 1.428-1.816 1.856-3.234 1.863-3.494.02-6.988.049-10.481-.003-1.615-.024-3.058-.595-3.197-2.457-.156-2.099 1.24-3.038 3.105-3.082 3.657-.087 7.319.001 11.418.105m-15.726-9.195c2.198 2.015 2.02 3.745-.309 4.901-1.408.7-2.815-.153-3.227-1.495-.815-2.657.678-3.653 3.536-3.406m22.36 4.325c-2.748 1.336-4.128.447-4.27-2.152-.088-1.602 1.058-2.54 2.534-2.306 2.472.39 3.397 1.827 1.736 4.458"/></svg>