<svg xmlns="http://www.w3.org/2000/svg" width="24" height="24" fill="currentColor" class="bi bi-twitter"><path d="M23.953 4.57a10 10 0 0 1-2.825.775 4.94 4.94 0 0 0 2.163-2.723 10 10 0 0 1-3.127 1.195A4.93 4.93 0 0 0 16.616 3a4.864 4.864 0 0 0-4.738 5.971 13.82 13.82 0 0 1-10.029-5.08A4.8 4.8 0 0 0 .67 5.1c0 1.688.852 3.177 2.148 4.042a4.9 4.9 0 0 1-2.2-.608v.06c0 2.348 1.67 4.3 3.886 4.747a4.9 4.9 0 0 1-2.192.083 4.93 4.93 0 0 0 4.604 3.417A9.87 9.87 0 0 1 0 19.54a13.93 13.93 0 0 0 7.548 2.209c9.053 0 14.002-7.495 14.002-13.982q0-.32-.014-.637A10 10 0 0 0 24 4.59a10 10 0 0 1-2.047.56 4.93 4.93 0 0 0 2.164-2.726z"/></svg>