<svg xmlns="http://www.w3.org/2000/svg" viewBox="0 0 24 24" fill="currentColor" class="bi bi-twitter" width="24" height="24">
  <path d="M23.953 4.57a10.058 10.058 0 0 1-2.825.775 4.938 4.938 0 0 0 2.163-2.723 10.008 10.008 0 0 1-3.127 1.195A4.93 4.93 0 0 0 16.616 3c-2.688 0-4.865 2.178-4.865 4.865 0 .38.043.749.127 1.106-4.045-.203-7.626-2.139-10.029-5.08A4.828 4.828 0 0 0 .67 5.1c0 1.688.852 3.177 2.148 4.042a4.904 4.904 0 0 1-2.2-.608v.06c0 2.348 1.67 4.3 3.886 4.747a4.93 4.93 0 0 1-2.192.083 4.933 4.933 0 0 0 4.604 3.417A9.872 9.872 0 0 1 0 19.54a13.925 13.925 0 0 0 7.548 2.209c9.053 0 14.002-7.495 14.002-13.982 0-.213-.005-.425-.014-.637A10.003 10.003 0 0 0 24 4.59a9.93 9.93 0 0 1-2.047.56 4.927 4.927 0 0 0 2.164-2.726z"/>
</svg>
