<svg xmlns="http://www.w3.org/2000/svg" width="500" height="500" viewBox="0 0 2000 2000"><path fill="#FCFDFC" d="M0 0h2000v2000H0z"/><path fill="#040303" d="M243 743h19l10 3 10 7 7 8 5 10 2 9v9l-4 15-8 11-10 7-8 4-1 26 122-1v-24l-14-9-5-5-6-8-4-10-1-14 3-12 6-11 7-7 12-7 5-1h19l10 3 9 6 9 10 5 12 1 5v11l-4 13-5 8-4 5-10 7-7 3-1 30 6 2 8 6 8 8 3 4 21 1 13 5 10 8 6 9 4 11 1 5-1 13-4 12-7 9-8 7-8 4-8 2h-13v16l-4 16-7 12-9 8-14 7-7 2h-8v25h78l16 4 11 7 9 10 5 10 3 11 1 19 15-1 11-4 7-8 2-7V937l-15-8-9-8-7-11-4-12v-26l2-4 4-3 7-1 7 3 3 4 1 4 1 20 4 8 8 7 6 2h10l9-3 7-8 3-8 1-19 3-6 6-4 8 1 5 5 2 5v13l-2 17-6 12-8 9-11 7-8 3-1 148-2 14-5 12-8 10-10 7-12 5-14 2h-10v177l-2 19-4 10-8 11-10 8-9 4-12 2H179l-10-2-12-6-8-7-9-14-3-13-1-188-20-2-12-4-9-5-7-6-9-14-3-10-1-8-1-162-14-7-10-9-6-9-4-11-1-17 1-13 5-5 2-1h7l6 4 3 5 1 20 4 10 7 6 8 3h8l11-4 6-7 3-7 1-20 5-8 5-2 8 1 5 5 2 6v12l-2 13-4 11-8 11-10 8-11 5h-2v161l1 7 6 9 9 6 4 1h16l1-19 4-13 7-11 7-7 10-6 15-4 78-1v-23l-14-3-14-7-6-5-8-11-4-9-2-10-1-17h-11l-13-4-10-7-7-8-5-10-2-10v-8l3-12 6-10 8-8 8-5 9-3 22-1 6-8 7-7 9-5h2l-1-31-7-2-9-7-7-8-5-10-2-11 1-12 5-12 6-8 7-6 10-5z"/><path fill="#FD6A66" d="M184 1072h284l10 3 6 4 6 7 2 9v226l-3 7-4 6-7 5-11 3h-11l-1-3v-60l-4-24-6-18-10-19-12-16-11-12-15-11-14-8-19-7-16-4-8-1h-28l-20 4-16 6-16 8-12 8-12 11-8 8-9 12-7 12-8 20-4 18-2 15-1 61h-11l-13-4-7-7-4-9-1-4v-224l3-8 6-8 6-4z"/><path fill="#FA454A" d="M319 1183h16l19 3 19 7 14 8 11 10 5 5 9 11 9 16 6 16 3 15 1 10v56l-2 2H224l-2-2v-51l3-24 5-18 8-16 9-12 13-13 14-10 14-7 15-4z"/><path fill="#D1D3E7" d="M251 877h150l9 5 5 5 3 8 1 9-1 76-5 10-7 6-7 3H255l-10-4-7-7-3-7v-86l5-10 9-7z"/><path fill="#E3E6EF" d="M172 271h18l16 3 12 5 11 7 10 9 8 10 7 14 4 17v19l-4 15-8 16-7 9-10 9-11 8h-2l-2 4-3 8-1 39-3 5h-6v11l-4 8-5 4-6 2h-9l-8-3-5-6-3-10v-5l-8-3-1-41-2-8-5-5-13-10-8-7-9-12-7-15-3-14v-17l3-14 5-12 7-11 5-6h2l2-4 11-8 14-7 11-3z"/><path fill="#040303" d="m860 357 16 1 12 5 8 6 6 7 6 13 3 14 1 10v9l-2 16-4 13-6 10-8 8-10 6-10 3h-15l-12-3-9-6-7-6v59l-1 1h-28V360l4-1 25 1v13l1 2 11-11 9-5zm-205 0h11l10 2 8 4 7 7 5 8 8-11 9-6 7-3 14-1 12 2 9 5 8 9 4 11 1 9v82l-1 1h-28l-1-81-3-8-8-4h-11l-8 4-6 7-3 9-1 67-2 6h-27l-1-81-3-7-4-4-3-1h-12l-7 3-3 1-6 12-1 4-1 72-1 1h-28V360l10-1 18 1v15l5-4 5-5 8-6zm-145 0 16 1 14 4 10 6 9 8 6 10 4 10 2 10v24l-4 16-6 11-5 6-8 6-12 6-13 3h-15l-15-3-14-7-6-5-6-8-6-12-3-12-1-17 2-15 6-15 6-9 10-9 13-6 7-2z"/><path fill="#FA464B" d="M1323 319h23l16 3 12 5 9 6 5 4-2 5-9 12-5 6-6-2-9-6-7-3-11-2h-8l-12 3-6 5-2 5 2 10 4 4 9 4 12 3 21 5 13 5 6 4 8 8 6 11 2 11v12l-3 12-5 9-8 9-12 7-13 4-6 1h-22l-18-4-16-8-9-7-7-9 2-5 8-11 7-7 4 2 12 12 10 5 13 3h13l9-3 4-4 3-7v-9l-4-6-5-4-26-7-20-6-11-7-7-7-4-7-3-7-1-6v-15l4-11 6-9 8-7 10-5z"/><path fill="#050303" d="M172 271h18l16 3 12 5 11 7 10 9 8 10 7 14 4 17v19l-4 15-8 16-7 9-10 9-11 8h-2l-2 4-3 8-1 39-3 5h-6v11l-4 8-5 4-6 2h-9l-8-3-5-6-3-10v-5l-8-3-1-41-2-8-5-5-13-10-8-7-9-12-7-15-3-14v-17l3-14 5-12 7-11 5-6h2l2-4 11-8 14-7 11-3zm3 8-14 3-13 5-10 7-11 11-8 13-5 15v24l4 13 6 11 7 8 7 7 11 8 5 5 4 6 4 9h15v-25l-8-10-7-6-7-8-9-9h-10l-7-6-1-3v-7l4-6 4-2h8l6 4 1 1 1 12 4 6 9 10 10 10h2v-18l-10-8-4-7v-9l4-8 1-3 5-2 7-2 9 1 7 5 3 5 1 12-3 7-5 5-7 5v16l2 1 8-7 13-14 3-4v-9l3-6 5-3h8l6 4 2 3v9l-5 6-5 2h-9l-9 11-21 21v26h15l2-1 2-9 9-10 13-10 6-5 9-13 5-11 2-9v-20l-3-13-7-14-10-12-13-9-10-5-10-3-7-1z"/><path fill="#040303" d="M317 1207h18l13 4 11 6 10 9 5 7 6 13 2 9v11l-2 12-8 16-10 11-11 7-11 4-7 1h-15l-14-4-12-7-10-10-8-15-3-11v-16l3-11 7-14 11-11 14-8z"/><path fill="#FA474C" d="M1768 357h25l12 4 8 6 6 7 4 10 1 10 1 56 1 1 11 1 1 6v15l-3 3-10 2h-12l-11-8-4-7v-2l-4 2-5 6-11 8-9 3h-12l-11-4-8-6-7-7-4-9-1-14 2-11 6-9 5-4 13-6 16-4 19-5 5-4v-8l-2-4-6-2h-15l-10 3-14 10-5-1-5-6-6-10 1-4 10-7 16-8z"/><path fill="#040303" d="M367 320h25l15 3 16 8 7 6 9 14 1 4-21 13-4-1-7-10-7-6-11-4h-18l-10 3-9 6-6 8-5 13-2 16v12l2 15 5 14 5 6v2l4 2 7 4 12 3h9l11-2 8-4 5-4 7-12 2-7 6 2 17 9 1 5-5 12-9 12-11 8-12 5-16 3h-13l-15-2-12-4-11-6-12-11-9-14-4-11-3-14-1-9v-15l3-21 5-14 7-12 8-9 10-7 13-6zm746 37h9l13 2 13 5 9 7 6 8 5 12 1 5v27l-1 1h-76l3 12 4 8 7 6 6 2h16l9-3 7-6 3-5 6 2 14 9 1 4-6 8-8 8-12 6-11 3h-19l-14-3-14-7-9-8-6-9-5-14-2-14v-13l3-14 5-12 6-9 10-9 12-6z"/><path fill="#FA454A" d="M1507 358h12l2 6v31l-1 81-3 1h-24l-2-2v-14h-2l-7 8-5 4-12 6-10 1-15-2-11-7-7-8-4-10-2-7v-87h30l1 1 1 80 3 7 6 4h15l7-3 5-5 3-8 1-6 1-63 1-7zm76-27h4l1 26 9 1h22l1 1v23l-1 1-16 1h-16l1 56 3 7 4 3h11l6-2h5l4 9 3 9-1 5-14 7-8 2h-13l-9-3-10-6-7-8-4-8-2-9v-62h-16l-1-1v-23l1-1 15-1 1-22z"/><path fill="#040303" d="M1000 313h29l1 134 2 4 2 1 10 1 1 1 2 14v7l-2 2-4 1h-18l-12-6-7-8-3-7-1-5z"/><path fill="#FA454A" d="M1696 357h11l10 2 1 3-3 16-3 9-3 2-5-2h-13l-6 3-5 6-4 10-1 7-1 58-2 6h-29V360l1-1 23-1 5 1v16l4-2 1-2h2l2-4 11-9z"/><path fill="#040303" d="M1248 358h10l9 3v8l-4 18-9-1h-11l-8 4-6 7-3 7-1 5-1 66-1 1h-28V360h27l1 2v15l3-1 6-9 10-7zm-287 1h6l1 1v115l-1 1h-28V360z"/><path fill="#FBFAFA" d="M509 382h11l9 3 5 4 5 9 3 12v14l-2 11-5 10-7 6-7 2h-14l-9-4-6-7-4-11-1-8v-13l3-12 5-8 7-6z"/><path fill="#FBFBFA" d="M850 382h10l9 3 6 5 5 10 2 10v17l-3 12-6 8-5 4-6 2h-14l-10-5-6-9-3-9-1-7v-11l2-11 5-10 7-6z"/><path fill="#FA494D" d="m1456 1104 3 1 4 16 6 27 2 1 1-10 8-31 2-3h11l3 8 9 34 1 2 4-21 5-21 1-2h13l-1 10-12 51-3 6-1 1h-13l-3-9-9-31h-1l-6 25-4 15h-16l-1-1-4-20-8-37-1-10z"/><path fill="#FD6966" d="M321 1232h13l9 4 7 6 6 11 1 5v9l-3 8-6 9-10 7-4 1h-14l-11-4-7-7-5-11-1-3v-10l4-11 8-9 7-4z"/><path fill="#FA4B4F" d="M1125 987h6l4 3-2 4-3 5 2 7v11l-5 6-9 4-13 2v2l19 2 9 4 3 4 1 3v9l-4 6-6 4-14 3-13-1-8-3-5-6 1-8 4-6 2-1-1-5-1-1v-6l5-4-1-4-4-5-1-8 3-8 7-6 7-2h13l2-1z"/><path fill="#FA4B4E" d="M1330 987h8l2 4-5 6 1 7 1 4v7l-3 6-10 6-15 1 2 3 18 2 8 3 4 5 2 5-1 7-4 6-8 5-8 1h-17l-8-3-4-6-1-7 4-5 4-4-3-4v-6l6-6-5-7-1-3v-9l4-7 3-3 8-3h15z"/><path fill="#FA494D" d="M1852 1101h13v71l-1 1h-9l-3-1v-5l-5 3-4 3h-13l-6-4-5-6-3-7v-18l4-10 6-5 7-3h9l9 4z"/><path fill="#FA4A4E" d="m1282 972 2 1v70l-1 2h-8l-4-1v-4l-5 2-2 2-5 1h-11l-8-6-4-8-1-15 2-11 5-8 7-4 4-1h8l10 5v-23l1-1z"/><path fill="#040303" d="m1161 859 6 1 2 2-1 5-4 4 2 8v8l-4 7-7 4-15 2v4l21 2 6 3 4 5 1 7-2 6-5 6-7 3-5 1h-13l-9-2-5-3-3-5 1-7 3-5 4-1-3-7v-6l5-4-2-5-3-5v-10l3-6 4-4 7-2h11l5 1 2-6zm261 6 2 2 2 4 5-4 5-2h8l7 3 5 5 3 6 1 4v16l-5 10-7 6-5 2h-7l-8-4-4-3 1 26h-13v-69l1-1zm-464 256h9l8 4 5 7 2 7v15l-4 10-8 7-5 2h-7l-8-4-3-3v25l-1 1h-12v-70h12l1 4 5-2z"/><path fill="#FA494D" d="m1658 848 19 1 8 3 5 5 3 5 1 4v9l-3 7-4 5-8 4-5 1-14 1-1 23-2 1-11-1-1-1-1-65 1-1z"/><path fill="#FA4C4F" d="m706 992 13 1 8 4 6 9 2 6v15l-4 8-9 8-9 3h-7l-10-4-5-5-4-5-2-6v-15l4-9 5-6 7-3z"/><path fill="#040303" d="M1333 1121h10l5 3 3 4 3-1 4-4 5-2h10l5 3 4 6 1 4v37l-2 1h-9l-1-1-2-37-1-1h-12l-2 5-1 31-1 2-11 1-1-2-1-36-1-1h-10l-3 2-1 4-1 22-1 10-3 1h-8l-1-1v-48l1-1h11v5l4-2 4-3zm-463 0h10l5 3 3 4 4-2 5-4 3-1h10l6 4 4 8v38h-12l-1-1-1-37h-11l-3 3-1 3-2 32h-11l-1-4-1-32-1-2h-9l-4 3-1 3-2 32-11 1-1-1v-49h12l1 5 5-3zm463-256 3 1 1 5 4-2 6-4h10l5 2 4 6 7-6 5-2h10l5 3 4 5 1 6v34l-1 3h-10l-2-1v-23l-1-14-1-1h-9l-4 3-1 3-1 32h-12l-1-1-1-35-1-2h-10l-3 3-1 2-2 33-1 1h-10l-1-1v-49z"/><path fill="#FA494D" d="M1250 1248h11l8 3 7 7 3 7 1 5v13l-4 8-8 7-6 3h-16l-8-5-6-8-2-7v-13l4-10 8-7z"/><path fill="#FA4A4E" d="m1558 1120 11 1 6 3 7 8 3 9v14l-4 8-8 7-5 3-4 1h-12l-9-7-6-7-2-6v-12l3-10 3-5 10-6z"/><path fill="#FA4B4E" d="M1308 1248h9l10 4 5 5 4 6 2 7v11l-4 10-8 7-6 3-11 1-9-3-9-9-3-7v-15l4-10 8-7z"/><path fill="#FA4B4F" d="M1722 864h8l9 3 6 5 5 9 1 4v14l-5 9-7 6-7 3h-14l-6-3-7-7-4-9v-13l3-9 7-8 6-3z"/><path fill="#FAF9FA" d="M284 1023h84l1 1v24h-85z"/><path fill="#FA4B4F" d="M1183 976h33l11 1v11l-1 1h-29v14l26 1v12l-26 1v15h30l2 10v2l-8 1h-36l-3-1v-67z"/><path fill="#FA4B4E" d="M1759 865h9l2 2 7 28 2 1 2-11 5-18 2-2h9l2 2 8 27 2-1 5-23 2-5h11l1 3-8 32-3 15-1 2-15-1-8-30-2-1-3 15-4 16-6 1h-9l-2-6-9-39v-6z"/><path fill="#040303" d="M1283 865h12l7 3 7 6 3 5 1 4v16l-3 7-4 5-9 5-4 1h-8l-9-3-5-4-5-8-2-12 2-10 6-10 7-4zm-477 256h11l8 3 8 9 2 6v16l-4 8-8 7-9 3-11-1-8-4-5-6-3-6-1-10 2-10 6-10 8-4zm1015-128h12l8 3 7 8 3 8v14l-4 9-8 7-8 3h-8l-10-4-5-5-4-6-2-12 2-10 4-7 7-6zm-230 0h12l9 4 6 7 3 7v15l-3 8-7 7-10 4h-8l-10-4-7-7-3-7-1-10 3-12 8-9zM293 950h67l7 4 2 4v8l-3 5-6 3-5 1h-59l-9-4-3-5v-9l4-5z"/><path fill="#FA4B4E" d="M830 976h14l9 4 6 4 3 5-1 4-7 5-4-2-6-5-2-1h-12l-7 6-3 7v15l4 10 5 3 10 1 7-3 7-9 5 2 5 4-1 5-4 6-10 7-3 1h-18l-9-4-5-4-6-10-2-7v-19l5-12 5-6 8-5z"/><path fill="#040303" d="m685 849 2 1 1 46 3 6 4 2h12l5-3 2-4 1-47h13v44l-3 12-5 5-6 4-9 2h-8l-9-2-8-5-4-6-2-8v-46z"/><path fill="#FA4C4F" d="M1367 992h11l9 4 5 7 2 6v12l-1 1-18 1h-14l4 8 2 1h11l5-4 6 1 4 2-1 5-7 7-8 3h-7l-10-3-8-6-4-7-1-4v-16l5-9 7-6z"/><path fill="#FA474C" d="M1720 1120h14l6 3 4 5 2 12 1 20 4 3v8l-2 2-13-1-1-4-5 1-3 1v2l-2 1h-13l-6-5-2-5v-12l4-5 11-4 12-3-1-5-7-1-9 3-5 1-4-5 1-5z"/><path fill="#FA4A4E" d="M1854 864h10l10 5 5 10 1 4v10l-5 2h-26v6l5 3h11l3-4h5l6 4-1 4-8 7-5 2h-16l-7-4-7-9-2-5v-15l4-9 4-5 9-5z"/><path fill="#FA474C" d="M1638 1101h9l1 1v36l3-1 6-9 5-5 4-2h10l-1 5-13 16 1 6 7 10 8 11-1 4h-12l-8-10-6-9-3-1v19l-3 1h-9l-2-1v-70z"/><path fill="#040303" d="M1543 865h14l8 4 4 5 2 6 1 10-2 4h-27l-4-1 1 6 2 4 4 2h9l4-2 3-3 4 1 5 5-5 6-10 5h-11l-8-3-6-5-4-6-2-13 2-10 5-8 6-5zm-319-16h14l10 4 7 6 1 5-7 5-4-1-2-4-8-3h-9l-7 4-4 8-1 5v9l2 8 4 6 4 3 9 1 8-3 4-5 2-3 7 1 3 2-1 7-7 8-8 4-5 1-13-1-10-4-7-7-4-8-2-10 1-14 3-9 4-6 7-6zm-325 16h13l8 5 3 8 1 26 5 5v6l-3 1h-8l-5-5-2-1-7 6-10 1-7-3-4-5-1-3v-10l5-6 8-3 11-3h4l-1-8h-10l-11 5-5-6 1-3 8-5zm-153 240h14l10 4 7 6 1 4-6 6h-4l-5-6-5-2h-10l-7 4-3 5-2 10 1 12 4 8 5 4 9 1 7-2 6-7 2-3 5 2 4 2-1 7-7 8-9 4h-16l-9-3-9-8-4-8-2-10v-8l2-10 5-10 8-7zm101-240h13l6 3 5 5 3 7v13l-9 1h-24l4 9 4 2h9l8-5 4 2 3 2-1 5-8 6-6 2h-9l-9-3-5-4-4-6-2-6v-15l4-9 8-7zm138-19h11l1 25 8-5 4-1h9l6 4 3 3 2 8v34l-1 1h-11l-1-26-1-11-2-1h-10l-4 3-1 3-1 24-1 9h-10l-2-1v-68zm428 275h12l7 3 6 7 2 5v13l-2 1h-30l2 7 3 3 9 1 8-4 7 1 2 2-1 4-7 6-7 3h-9l-10-4-5-5-4-6-2-12 2-10 5-8 6-5zm287-128h14l7 4 3 5 1 5 1 25 5 4v6l-3 2h-9l-3-4-2-3-7 6-5 2h-7l-6-3-4-6-1-3v-8l4-6 5-3 17-4 2-1-1-6-2-1h-8l-10 5-3-1-1-5h-2l1-3 8-5zm-635 128h13l8 4 4 5 2 6v13l-13 1h-19l2 7 3 3 3 1h7l10-5 7 5-2 4-8 6-7 2h-7l-10-3-5-4-5-8-2-12 2-10 5-8 6-5zm206 0h14l7 4 3 5 1 4 1 26 5 3v6l-3 3h-8l-3-3-1-5-8 6-6 3h-7l-6-4-4-5-1-3v-8l4-6 5-3 17-4 2-1-1-6-2-1h-7l-8 3-2 2h-3l-3-5v-4l8-5z"/><path fill="#FA454A" d="m1769 1120 3 1 1 5h2l5-5 3-1h10l8 3 4 8 1 9v27l-1 6-13-1-2-37-7-2-7 3-2 9-1 28h-12l-1-1-1-13v-24l1-13 1-1z"/><path fill="#FA4B4E" d="m1036 992 10 1 2 4 4-1 6-4h11l6 3 3 3 2 6v41h-12l-1-1-2-37-1-1h-11l-3 3-1 10-1 26h-12l-1-1-1-7v-27l1-17z"/><path fill="#FA4A4E" d="M872 993h12l1 30 1 7 3 2h7l4-3 1-3 2-33h12l1 1v51l-12-1-1-6-3 1-4 5-8 2-10-2-5-6-2-5v-39z"/><path fill="#040303" d="M1166 1106h42v10l-1 1h-26l-1 1v16h26v10l-1 1h-25l-1 26-5 1h-7l-1-1z"/><path fill="#FA454A" d="M1181 1232h42l1 1v11l-1 1h-17v48l-1 8h-11l-3-1v-48l-1-6-18-1v-12zM666 972h14l3 2v8l-2 3h-10l-3 1-1 6 13 1 1 1v10l-3 1h-10l-1 38-1 1h-13l-1-29v-9l-6-3-1-5 3-5 3-3 3-10 5-5z"/><path fill="#040303" d="M1887 993h10l6 3 4 7 1 5v34l-7 2h-5l-1-4-1-33-2-2h-10l-4 4-1 2-2 32-11 1-1-1v-49h12l2 6 7-6zm-405 0h10l6 3 3 4 2 7v36h-12l-1-3v-16l-1-19h-12l-4 4-1 2-1 9-1 23-11 1-1-1v-49h12l1 6 8-6zm-387-128h9l7 4 4 9v36l-1 1h-11l-2-36-1-2h-11l-4 3-1 3-1 31-1 1h-11l-1-1v-48h12v5l4-2 5-3zm430 128 3 2 1 5h2l4-5 5-2h10l6 3 4 6 1 5v36h-12l-2-37-2-1h-10l-4 4-1 3-1 23-1 8h-12v-47l1-2zM753 865l3 3 2 4 7-6 3-1h9l6 3 4 5 2 8v34h-12l-1-3v-29l-1-5-2-1h-10l-4 4-1 2-2 32-1 1h-10l-1-1v-49z"/><path fill="#FA4A4E" d="M1389 1248h9l9 2 5 4-2 6-3 4-5-2-3-1h-11l2 5 15 4 6 4 4 8v6l-5 8-6 4-4 1h-15l-8-4-3-4 1-7 3-2 5 1 9 4h6l2-7-14-3-8-5-3-5v-8l4-8 5-3z"/><path fill="#FD6764" d="m331 1204 10 2 4 1 11 5 13 7 4 5 2 7 2 1 1 6 3 2 2 10 3 3-2 2v11h3v16h-2v4h-2l-1 6-4 4-5 8-4 1-1 3-7 1-5 4-12 4-3 2-11 2-6-1h-9l-10-2-3-2v-2l-8-2-1-2-4-1-2-1v-2l-6-2-1-4-1-3-2-2-4-8-5-4-1-5v-5l-2-1h2l-2-4v-3h2v-3h-2l-1-4 3-6v-8l3-6 1-4 1-2h2l2-5 7-7 4-1 1 4-8 9-6 13-2 9v16l4 13 7 13 9 9 12 7 14 4h15l10-2 12-5 10-8 7-9 7-14 2-12v-11l-3-11-7-14-9-10-10-6-9-4-17-4v-1z"/><path fill="#FA4B4F" d="M981 981h2l1 2 1 9 13 1 1 8-1 3h-13v16l1 11 12 1v13l-17 1-8-7-3-7v-28h-7v-11l7-1 1-8 6-2z"/><path fill="#FA4B4E" d="M934 982h10l1 1v9l14 1 1 3-1 8h-14l1 26 2 1 11 1 1 1v9l-2 3-7 1h-8l-5-3-5-6-2-11v-22h-6l-2-4v-5l3-2h5l1-10z"/><path fill="#040303" d="M948 865h13l9 4 1 5-5 5-8-3h-9l-1 5 1 2 15 4 5 3 4 5 1 6-2 7-5 5-5 3-5 1h-7l-11-4-5-4 1-5 6-4 5 4 9 2 5-2 1-6-12-3-8-4-5-6v-10l4-6zm679 129h12l3 5 10 27 2 2 9-27 3-7h13l-6 17-9 24-4 8-1 1h-13l-3-5-16-44zm119-11h8v10h13l1 1v9l-1 1h-13v20l1 7 1 1h11l1 1v9l-8 3h-7l-6-3-5-7-1-4v-27l-7-1-1-1v-7l7-2 1-9z"/><path fill="#FA464A" d="M1351 1229h11l2 2v54l5 6 2 1-1 7-2 2h-9l-6-3-4-8v-59z"/><path fill="#FD6965" d="M395 767h9l8 4 5 6 1 3v10l-4 6-5 5-4 2h-10l-8-5-4-5-2-6 1-8 4-6 6-5z"/><path fill="#FD6663" d="M319 1183h16l19 3 19 7 14 8 11 10 5 5 9 11 9 16 6 16 1 4v10l-2-3-3-12-3-6v-4h-2v-5h-2v-3l-4-1-1-4-3-3-3-1 2-1-4-3v-2l-2-1v-1l-2-6h-2l-5-5v-2h-3l-2-3-2 1-1-3-5-5-16-8-9-3-12-2h-36l-16 4-8 4-5 4-3 3-3 4-6 2-6 4h-3v4h-2l-2 8-3 1-4 5-1 6h-2l-2 9-5 6v3l-2 7-3 8h-2v4h-2l-1 2v-10l5-18 8-16 9-12 13-13 14-10 14-7 15-4z"/><path fill="#FD6965" d="M249 767h9l6 3 6 7 1 3v10l-6 9-7 4h-10l-8-5-4-6-1-3v-8l4-8 6-5z"/><path fill="#FBF7F7" d="M1114 380h9l10 3 6 7 3 10v5l-9 1h-39l-1-1 1-8 6-10 5-4z"/><path fill="#FA494D" d="m773 992 4 2v9l-2 4h-9l-4 2-1 2-1 25-1 8-2 1h-11l-1-1v-50l1-1h12l2 3 6-2z"/><path fill="#FCFDFC" d="M1792 420h2v16l-3 9-3 4h-2v2l-8 4h-12l-6-4-3-5v-11l3-5 13-5 11-3z"/><path fill="#040303" d="m951 311 9 1 6 4 5 8v9l-3 6-5 4-8 3-10-2-5-3-4-7v-11l4-7 7-4z"/><path fill="#FA494D" d="m1917 864 4 2-1 11-1 1h-8l-6 4-1 34-4 1-10-1-1-1v-49l1-1h11l1 4 6-1 3-3z"/><path fill="#FA454A" d="M1596 1121h11l2 5h2l4-4 2-1h10l1 2v8l-2 3-10 1-5 5-1 6-1 27h-11l-2-1-1-23v-26z"/><path fill="#040303" d="M1499 846h12l1 60h6l1 10-7 1-8-2-4-5-1-3zm-697 0h12l1 59 6 2 1 8-2 2-10-1-6-5-2-4zm218 256h12l1 56 1 3 5 2 1 2v6l-2 2-10-1-6-5-2-5zm409-124h13v57l-1 8-2 1h-10zm-296 143 2 1v9l-1 2-13 2-3 5-2 32h-10l-2-1v-48l1-1h10l2 6 3-1 2-4 2-1zm85 1h12v6l3-1 4-4 2-1h10l-1 11-10 1-5 3-1 3-2 31-3 1h-8l-1-1zm364-256h10l2 1 2 4 5-4 3-1h7l2 5-2 6h-7l-7 4-1 2-1 22-1 10-4 1h-7l-1-1z"/><path fill="#D1D1E5" d="M443 901h11l7 4 5 6 1 2v12l-5 8-4 3-11 3-4-1z"/><path fill="#D2D0E3" d="m206 900 4 1v36l-1 1h-7l-9-3-5-5-2-5v-12l4-6 4-4 5-2z"/><path fill="#FA4C4F" d="m1010 992 11 1v52h-12l-1-1-1-28 1-23z"/><path fill="#040303" d="M1778 994h13v49l-1 1h-11l-1-2zm-784 128h13v33l-1 16-11 1-1-1zm478-256h12l1 1v28l-1 21h-11l-1-1z"/><path fill="#FE6B67" d="M1696 357h11l10 2 1 3-3 16-2 3 1-9 2-10-11-2h-10l-6 3-14 14-4-1v-16l-25 2-1 18v95h26v-60l5-16 3-3-3 10-1 7-1 58-2 6h-29V360l1-1 23-1 5 1v16l4-2 1-2h2l2-4 11-9z"/><path fill="#040303" d="M1043 866h13v23l-1 26h-12z"/><path fill="#F9F6F7" d="M806 1132h10l5 4 2 5v10l-3 7-5 4h-8l-5-3-3-8v-9l4-8z"/><path fill="#F9F7F8" d="M1592 1000h10l5 4 2 6v9l-3 7-5 4h-8l-5-3-3-7v-10l4-8z"/><path fill="#F9F6F7" d="M1284 876h9l5 3 3 7v9l-3 7-5 4h-9l-5-4-2-6v-10l4-8z"/><path fill="#FAF5F6" d="M1822 1000h9l5 3 3 7v10l-3 6-5 4h-8l-4-2-3-5-1-5v-7l3-7z"/><path fill="#FAF6F6" d="M953 1132h10l6 7 1 9-2 9-5 4-7 1-6-3-3-4-1-12 3-8z"/><path fill="#FAF8F8" d="M1431 876h9l6 5 2 9-1 9-5 6-2 1-10-1-4-4-1-3v-14l3-5z"/><path fill="#FE6B67" d="M1416 359h30l1 1 1 80 3 7 6 4h19l-3 2-3 1h-10l-8-3-5-5-2-8-1-76-10-1h-16l1 84 4 15 6 8 8 6 9 2 13 1 11-1-2 2-7 2-16-1-9-3-10-8-6-9-4-13z"/><path fill="#040303" d="m1933 977 3 1v29l-1 15h-11l-1-11v-33z"/><path fill="#D2D0E4" d="m193 391 2 2 1 4 3 3 2-4h2l1-2 3 2-1 3h-2l1 6h4l4-2v-2l3 1-5 5-6 7-2 9-2 1h-15v-26z"/><path fill="#FCFDFC" d="m1256 1000 9 1 5 6 1 3v9l-3 7-3 3-7 1-6-3-3-4-1-10 3-9zm53 261h8l6 5 1 11-2 8-5 4h-9l-5-4-2-11 3-9zm249-129 7 1 5 5 1 3v10l-3 7-4 3h-8l-5-4-2-4v-10l4-8z"/><path fill="#FBFCFC" d="m1725 876 7 1 4 5 1 11-2 8-5 4h-8l-3-1-3-5-1-4v-10l4-7z"/><path fill="#FCFDFC" d="m1837 1132 9 1 4 5 1 2v14l-6 7h-8l-5-4-2-4v-12l3-6zm-586 129h9l5 6v15l-3 5-6 3-7-2-4-4-1-3v-11l3-6zm-545-261h9l4 4 2 6v7l-3 8-5 3h-8l-4-4-2-5v-10l3-6z"/><path fill="#FE6B67" d="M1507 358h12l2 6v31l-1 81-3 1h-24l-2-2 1-14h1l1 13 24 1V360l-14 1h-13v68l-3 12-4 6-6 4-2-1 7-5 4-10 1-6 1-63 1-7zm71-26h5l-4 2-17 3h-5v22l-1 1-16 1v21h16l2 4 1 60 3 12 4 6 7 7 8 4 5 1h19l10-3 6-3-1-7-3-9 1-4 6 16-1 5-14 7-8 2h-13l-9-3-10-6-7-8-4-8-2-9v-62h-16l-1-1v-23l1-1 15-1 1-22z"/><path fill="#FD6663" d="M279 1193h2l1 3-8 5-1 3-2 2-6 2-6 4h-3v4h-2l-2 8-3 1-4 5-1 6h-2l-2 9-5 6v3l-2 7-3 8h-2v4h-2l-1 2v-10l5-18 8-16 9-12 13-13 14-10z"/><path fill="#040303" d="m269 901 8 1 5 5 2 5-1 6-4 5-4 2h-7l-6-3-3-6v-6l4-6zm110 0h6l6 4 3 6-1 7-5 6-9 1-6-3-3-5v-9l4-5z"/><path fill="#FA454A" d="M1144 1000h23l3 1v11l-1 1h-24l-4-2v-8z"/><path fill="#FE6B67" d="M666 972h14l3 2v8l-2 3h-10l-3 1-1 6 13 1 1 1v10l-3 1h-10l-1 38-1 1h-13l-1-29v-9l-6-3-1-5 3-5 3-3 3-10 5-5zm-2 2-8 5-2 5-1 8-5 5-1 3 1 3 6 1v33l1 6h10l1-37 1-2 13-1v-8l-1-1-13-1-1-3 2-5 3-1h9l2-1v-8l-1-1zm919-643h4l1 26 9 1h22l1 1v23l-1 1-16 1h-16l1 56 3 7 4 3h11l6-2h5l-1 2-9 2h-13l-5-3-3-5-1-5v-54l3-3 30-1v-21h-31l-2-2v-26zm-402 901h42l1 1v11l-1 1h-17v48l-1 8h-11l-3-1v-48l-1-6-18-1v-12zm40 1-44 1-3 2-1 8 18 1 1 3 1 51 11 1 1-55 18-1v-10z"/><path fill="#FDFEFD" d="M1660 861h14l5 3v11l-3 4-4 1h-11l-2-3v-15z"/><path fill="#FE6B67" d="m1769 1120 3 1 1 5h2l5-5 3-1h10l8 3 4 8 1 9v27l-1 6-13-1-2-37-1-2 3 1 1 9v28h11v-25l-2-15-2-5-2-2-5-1h-11l-5 2-2 4h-4v-7l-9 1v48h10l-1-10 1-17 1-6h1l-1 35h-12l-1-1-1-13v-24l1-13 1-1z"/><path fill="#FA454A" d="M179 337h6l5 4 2 4-1 6-4 5-2 1h-8l-5-5-1-7 4-6z"/><path fill="#FE6B67" d="M1696 357h11l10 2 1 3-3 16-2 3 1-9 2-10-11-2h-10l-6 3-14 14-4-1v-16l-25 2-1 18v47l-1 14h-1v-81l1-1 23-1 5 1v16l4-2 1-2h2l2-4 11-9zm-381-7 2 1-5 6-1 6 3 9 9 5 9 3 24 5 16 6 6 4 8 8 6 11 2 11v12l-3 12-5 9-2 1 6-15 1-8v-13l-4-14-7-9-6-5-13-6-25-6-12-3-10-5-4-5-1-3v-9l3-6zm502 23 3 3 3 8 1 10 1 56 1 1 11 1 1 6v15l-3 3-10 2h-12l-8-6 2-1 7 4h11l11-1v-10l-1-10-11-1-2-4-1-54-1-12z"/><path fill="#F6F1F3" d="m161 351 2 1 4 7 10 8v18l-4-2-8-8v-7l-1-7-4-2-1-3z"/><path fill="#F4F2F4" d="M1137 917h17l5 3-1 5-5 3h-14l-4-4 1-5z"/><path fill="#FE6B67" d="M1351 1229h11l2 2v54l5 6 2 1v5l-1-3-4-1v-3l-4-2-1-3v-41l1-13h-11v62l-2-3v-59zm245-108h9v1l-8 2v16l1 30 9 1v-16l2-17 6-5 9-1h2v-10l-8 1-5 2-1 3-4 1-1-7 2 4h2l4-4 2-1h10l1 2v8l-2 3-10 1-5 5-1 6-1 27h-11l-2-1-1-23v-26z"/><path fill="#FD6461" d="m331 1204 10 2 4 1 11 5 13 7 4 5 2 7 2 1 1 6 3 2 2 10 3 3-5 2-3-11-7-14-9-10-10-6-9-4-17-4v-1z"/><path fill="#040303" d="M270 334h22v8l-1 1h-21l-3-3v-5z"/><path fill="#FAFBFB" d="M1307 1045h19l1 1v9l-4 1h-10l-6-2-1-1v-7z"/><path fill="#040303" d="M71 334h24l1 5-1 3-4 1H71z"/><path fill="#FB5052" d="m1014 972 6 2 3 5-1 6-3 3h-8l-5-5v-6l4-4z"/><path fill="#F8F1F2" d="M1143 874h8l4 5v6l-5 5h-6l-4-3-1-7 2-5z"/><path fill="#040303" d="M287 301h4l1 6-4 4-14 5-5-1-1-1v-5l11-5zm-17 59 5 1 16 5 1 1v7l-3 1-17-5-4-4 1-5z"/><path fill="#F7F2F4" d="m909 891 2 1v9l-4 5-2 1h-7l-4-4v-5l5-4z"/><path fill="#040303" d="m92 360 3 1 1 6-9 4-15 4-1-7 4-3z"/><path fill="#F7F2F4" d="M1708 1020h5v9l-4 5-2 1h-7l-4-3v-6l5-4z"/><path fill="#F6F1F3" d="M1278 1148h6v10l-3 3-4 2h-6l-4-4 1-6 4-3z"/><path fill="#FE6B67" d="M1638 1101h9v1l-11 1 1 67h9l1-18h4l-3 1v19l-3 1h-9l-2-1v-70z"/><path fill="#FBFCFC" d="m1101 1045 21 1 1 1-1 7-1 1h-18l-2-2-1-5z"/><path fill="#040303" d="m72 301 12 3 10 5 1 5-1 2-7-1-14-5-2-5z"/><path fill="#F9EAEB" d="m1418 1130 7 2 3 3 1 5-3 2h-18l1-6 5-5z"/><path fill="#F7ECEE" d="M1066 1131h8l5 3 2 7-2 1h-19l1-6z"/><path fill="#F7F1F3" d="M1545 875h9l6 7v3l-2 1h-18l-1-4z"/><path fill="#FE6B67" d="m1361 427 2 3-1 7-4 9-7 5-4 1h-19l-16-5-8-6-9-9-3-1-4 5-3 3-7 9 1 7-4-4 2-5 8-11 7-7 4 2 12 12 10 5 13 3h13l9-3 4-4 3-7z"/><path fill="#FDFEFD" d="M1108 1000h8l3 2v9l-4 3h-7l-3-4v-8z"/><path fill="#F8F4F5" d="M849 875h8l4 4 2 6-20 1-1-5 5-5z"/><path fill="#040303" d="m998 1101 6 1 3 2v9l-4 3-8-1-2-4 1-7zm927-71h10l1 1v11l-1 1h-10l-3-3v-7zm-142-57 7 2 2 6-2 5-7 2-4-1-2-4v-6l3-3zm-309-127h9l2 2v10l-6 2-7-2-1-10zm-426-1 7 2 2 5-2 7-7 1-4-1-2-4 1-7z"/><path fill="#FE6B67" d="M1852 1101h13v71h-1v-70l-9 1-2-1v22l-1 4-4-2-5-3h-11l-6 1 4-3 3-1h9l9 4z"/><path fill="#FBFCFC" d="M1313 1000h8l2 2v10l-3 3-6-1-4-5v-6z"/><path fill="#FD6260" d="M319 1183h16l19 3v2h-8l-4-1h-36l-16 4-9 3v-2l14-5 13-3z"/><path fill="#FBFCFC" d="M1728 1149h4v7l-3 5-3 2h-6l-3-4v-6l9-3z"/><path fill="#FE6B67" d="M1721 1131h9l2 1 1 7-8 4-12 3-6 4-1 3v8l3 6 5 3h13v2l-2 1h-13l-6-5-2-5v-12l4-5 11-4 12-3-1-5-7-1-9 2 3-3z"/><path fill="#FBFCFC" d="M1851 876h11l4 3v5l-2 1h-15l-1-5z"/><path fill="#F9F8F9" d="M1366 1000h9l5 5-1 4h-17v-5z"/><path fill="#FE6B67" d="m773 992 4 2v9h-1l-1-8-8 1-6 3-4-1-1-3-9 1v47l-2 1v-50l1-1h12l2 3 6-2zm371 8h23l3 1v11l-1 1h-24l-4-2v-8zm8 2-10 1v7l7 2h19l1-1v-9zm544-645h11l10 2 1 3-3 16-2 3 1-9 2-10-11-2h-10l-6 3-11 11-1-3h2l2-4 11-9zm-401 111 9 3 7 3 13 2h23l16-2-2 2-14 3h-22l-18-4-12-6zm-42 791 8 1 5 6 1 4v9l-2 7-5 5h-8l-5-3h3l6 1 6-3 2-4v-15l-4-5h-9l-5 3 2-4zm141-2 5 1 5 2 1 3-6-2h-11l2 5 15 4 3 3-17-3-5-2-1-5 4-4zm496-392h11l1 4h6l-3 3h-4l-1-5h-10l1 47 6 1v1h-7l-1-1v-49z"/><path fill="#FD6865" d="M279 1193h2l1 3-8 5-1 3-2 2-6 2-5 2 2-4 5-5z"/><path fill="#FE6B67" d="M1454 1142h1l6 25 3 3 11 1 1-7 2-5 1 3-3 11h-16l-1-1-4-20z"/><path fill="#FC615F" d="m351 1311 2 1-2 3-7 2-3 2-11 2-9-3v-1l19-2z"/><path fill="#E6EAF2" d="m189 415 10 3 1 1 2-2v6h-15v-7z"/><path fill="#FE6B67" d="m1644 850 2 1 1 59 1 2-3 3zm93-382 4 2 9 5 6 2h15l8-2-1 2-9 3h-12l-11-4-8-6zm-17 652h14l6 3 1 2h-3v-2l-14-1-12 4-5 3 1 6-3-3 1-5z"/><path fill="#FA454A" d="M456 1300h1v35l1 5 9 1v1h-11l-1-3v-33z"/><path fill="#FE6B67" d="m1741 1125 3 3 2 12 1 20 3 3-5-1-1-3-1-27zm-506 166 11 7 3 1h8l9-1-4 3h-16l-8-5-3-3zm424-127 5 4 1 2 11 1-3-5 1-2 4 5-1 4h-12l-6-7zm-114 4 9 3h11l6-1-3 3-4 1h-12l-7-5z"/><path fill="#FD6865" d="m1124 990 1 3-1 1h-15l-9 3-6 5 2-4 5-4 7-2h13z"/><path fill="#FE6B67" d="M1813 874h1l-1 9-3 16-3 1-2-5 1-4 2 3 2-7zm36 2 2 1-2 3v4h17v-5l3 3-2 4-17 1-3-2v-6z"/><path fill="#FC5F5D" d="m374 1234 3 1 2 4 2 1 2 10 3 3-5 2-3-11-4-8z"/><path fill="#FE6B67" d="M1647 1102h1v36l4-1-1 3-3 1-1-1z"/><path fill="#FD6663" d="m1299 1027 2 1-2 6 3 5-1 4-7 7-2 3 1-5 5-5 2-3-3-4v-6zm545-159 2 1-8 8-3 8-1 14h-1v-15l4-9 4-5z"/><path fill="#FE6B67" d="M1409 1274h2l4 8v6l-5 8-2-1 3-4 1-10zm107-117h1l-1 9-3 6-1 1h-13l-1-1v-5l3 4h7l4-1z"/><path fill="#F8EBEC" d="m126 356 2 1 3 5 5 4v2l-6-2-5-5-1-4z"/><path fill="#FE6B67" d="m1378 1284 5 1 9 4 6 1v1h-9l-7-3-5-1-2 2 1-4zm-50-295h1v6l-4 1-5-2h-11l3-2h15zm-444 34h1l1 7 3 2h7l4-2-1 3-10 3-5-5z"/><path fill="#FDFEFD" d="M154 343h5v6l-5-1v-2l-4-2z"/><path fill="#D7CCDC" d="M216 366h11l-3 3h-7l-6 5 2-4z"/><path fill="#FE6B67" d="M1716 1153h1l2 7 1 2h8l-1 2-7 1-4-4-1-7zm-445-179h1v25h-3l-1-2h3zm387-81h1v23l-2-1 1-2-3-1 2-1z"/><path fill="#EBBFC6" d="M186 376h1l1 5 4-4 3 1-8 7-2-1z"/><path fill="#FD6462" d="m354 1187 9 2 5 2v2l-9-2-5-2z"/><path fill="#FC605F" d="m340 1184 14 2v2h-8l-4-1v-2z"/><path fill="#FD6663" d="m331 1204 9 2 1 2-10-1-5-1v-1z"/><path fill="#FE6B67" d="m1855 874 9 1 2 4-4-2h-8l-3-2zm-75 15h1l-1 9-1 2h-2l-2-4v-5l2 4 2 1z"/><path fill="#FC5C5B" d="m1684 364 3 1-9 9-1-3h2l2-4z"/></svg>