<svg xmlns="http://www.w3.org/2000/svg" width="1200" height="600" viewBox="0 0 1200 600" role="img"><rect width="1200" height="600" fill="#ffffff"/><text x="260" y="38" font-size="30" font-weight="700" fill="#111827">Cache Misses Across All 10 Workloads</text><text x="260" y="64" font-size="15" fill="#6b7280">Lower is better</text><line x1="260.0" y1="90" x2="260.0" y2="540" stroke="#d1d5db" stroke-width="1"/><text x="260.0" y="582" text-anchor="middle" font-size="12" fill="#6b7280">0</text><line x1="424.0" y1="90" x2="424.0" y2="540" stroke="#d1d5db" stroke-width="1"/><text x="424.0" y="582" text-anchor="middle" font-size="12" fill="#6b7280">3290587</text><line x1="588.0" y1="90" x2="588.0" y2="540" stroke="#d1d5db" stroke-width="1"/><text x="588.0" y="582" text-anchor="middle" font-size="12" fill="#6b7280">6581174</text><line x1="752.0" y1="90" x2="752.0" y2="540" stroke="#d1d5db" stroke-width="1"/><text x="752.0" y="582" text-anchor="middle" font-size="12" fill="#6b7280">9871761</text><line x1="916.0" y1="90" x2="916.0" y2="540" stroke="#d1d5db" stroke-width="1"/><text x="916.0" y="582" text-anchor="middle" font-size="12" fill="#6b7280">13162348</text><line x1="1080.0" y1="90" x2="1080.0" y2="540" stroke="#d1d5db" stroke-width="1"/><text x="1080.0" y="582" text-anchor="middle" font-size="12" fill="#6b7280">16452935</text><text x="246" y="126" text-anchor="end" font-size="13" fill="#111827">Branch-heavy loop</text><rect x="260" y="106" width="5.9" height="12" fill="#d97706" rx="3"/><rect x="260" y="122" width="5.6" height="12" fill="#2563eb" rx="3"/><text x="273.9" y="116" font-size="11" fill="#111827">118757</text><text x="273.6" y="132" font-size="11" fill="#111827">113131</text><text x="246" y="170" text-anchor="end" font-size="13" fill="#111827">Strided access</text><rect x="260" y="150" width="467.2" height="12" fill="#d97706" rx="3"/><rect x="260" y="166" width="313.4" height="12" fill="#2563eb" rx="3"/><text x="735.2" y="160" font-size="11" fill="#111827">9374295</text><text x="581.4" y="176" font-size="11" fill="#111827">6288700</text><text x="246" y="214" text-anchor="end" font-size="13" fill="#111827">Rolling hash</text><rect x="260" y="194" width="12.9" height="12" fill="#d97706" rx="3"/><rect x="260" y="210" width="12.4" height="12" fill="#2563eb" rx="3"/><text x="280.9" y="204" font-size="11" fill="#111827">258797</text><text x="280.4" y="220" font-size="11" fill="#111827">248215</text><text x="246" y="258" text-anchor="end" font-size="13" fill="#111827">Row-major traversal</text><rect x="260" y="238" width="17.4" height="12" fill="#d97706" rx="3"/><rect x="260" y="254" width="15.8" height="12" fill="#2563eb" rx="3"/><text x="285.4" y="248" font-size="11" fill="#111827">349311</text><text x="283.8" y="264" font-size="11" fill="#111827">317033</text><text x="246" y="302" text-anchor="end" font-size="13" fill="#111827">Column-major traversal</text><rect x="260" y="282" width="820.0" height="12" fill="#d97706" rx="3"/><rect x="260" y="298" width="633.9" height="12" fill="#2563eb" rx="3"/><text x="1088.0" y="292" font-size="11" fill="#111827">16452935</text><text x="901.9" y="308" font-size="11" fill="#111827">12719336</text><text x="246" y="346" text-anchor="end" font-size="13" fill="#111827">Small sort</text><rect x="260" y="326" width="9.4" height="12" fill="#d97706" rx="3"/><rect x="260" y="342" width="12.2" height="12" fill="#2563eb" rx="3"/><text x="277.4" y="336" font-size="11" fill="#111827">187983</text><text x="280.2" y="352" font-size="11" fill="#111827">244954</text><text x="246" y="390" text-anchor="end" font-size="13" fill="#111827">Prefix sum</text><rect x="260" y="370" width="15.7" height="12" fill="#d97706" rx="3"/><rect x="260" y="386" width="17.1" height="12" fill="#2563eb" rx="3"/><text x="283.7" y="380" font-size="11" fill="#111827">314447</text><text x="285.1" y="396" font-size="11" fill="#111827">342127</text><text x="246" y="434" text-anchor="end" font-size="13" fill="#111827">Bit mix</text><rect x="260" y="414" width="2.1" height="12" fill="#d97706" rx="3"/><rect x="260" y="430" width="1.9" height="12" fill="#2563eb" rx="3"/><text x="270.1" y="424" font-size="11" fill="#111827">42563</text><text x="269.9" y="440" font-size="11" fill="#111827">39031</text><text x="246" y="478" text-anchor="end" font-size="13" fill="#111827">Indirect gather</text><rect x="260" y="458" width="620.2" height="12" fill="#d97706" rx="3"/><rect x="260" y="474" width="725.7" height="12" fill="#2563eb" rx="3"/><text x="888.2" y="468" font-size="11" fill="#111827">12444221</text><text x="993.7" y="484" font-size="11" fill="#111827">14559856</text><text x="246" y="522" text-anchor="end" font-size="13" fill="#111827">2D stencil</text><rect x="260" y="502" width="9.7" height="12" fill="#d97706" rx="3"/><rect x="260" y="518" width="10.0" height="12" fill="#2563eb" rx="3"/><text x="277.7" y="512" font-size="11" fill="#111827">194199</text><text x="278.0" y="528" font-size="11" fill="#111827">200336</text><rect x="1010" y="64" width="14" height="14" fill="#d97706" rx="2"/><text x="1032" y="76" font-size="13" fill="#111827">GCC</text><rect x="1080" y="64" width="14" height="14" fill="#2563eb" rx="2"/><text x="1102" y="76" font-size="13" fill="#111827">Clang</text></svg>