<svg xmlns="http://www.w3.org/2000/svg" width="1200" height="600" viewBox="0 0 1200 600" role="img"><rect width="1200" height="600" fill="#ffffff"/><text x="260" y="38" font-size="30" font-weight="700" fill="#111827">Instruction Count Across All 10 Workloads</text><text x="260" y="64" font-size="15" fill="#6b7280">Lower is better</text><line x1="260.0" y1="90" x2="260.0" y2="540" stroke="#d1d5db" stroke-width="1"/><text x="260.0" y="582" text-anchor="middle" font-size="12" fill="#6b7280">0</text><line x1="424.0" y1="90" x2="424.0" y2="540" stroke="#d1d5db" stroke-width="1"/><text x="424.0" y="582" text-anchor="middle" font-size="12" fill="#6b7280">431128516</text><line x1="588.0" y1="90" x2="588.0" y2="540" stroke="#d1d5db" stroke-width="1"/><text x="588.0" y="582" text-anchor="middle" font-size="12" fill="#6b7280">862257032</text><line x1="752.0" y1="90" x2="752.0" y2="540" stroke="#d1d5db" stroke-width="1"/><text x="752.0" y="582" text-anchor="middle" font-size="12" fill="#6b7280">1293385548</text><line x1="916.0" y1="90" x2="916.0" y2="540" stroke="#d1d5db" stroke-width="1"/><text x="916.0" y="582" text-anchor="middle" font-size="12" fill="#6b7280">1724514064</text><line x1="1080.0" y1="90" x2="1080.0" y2="540" stroke="#d1d5db" stroke-width="1"/><text x="1080.0" y="582" text-anchor="middle" font-size="12" fill="#6b7280">2155642580</text><text x="246" y="126" text-anchor="end" font-size="13" fill="#111827">Branch-heavy loop</text><rect x="260" y="106" width="143.0" height="12" fill="#d97706" rx="3"/><rect x="260" y="122" width="138.6" height="12" fill="#2563eb" rx="3"/><text x="411.0" y="116" font-size="11" fill="#111827">375894032</text><text x="406.6" y="132" font-size="11" fill="#111827">364376440</text><text x="246" y="170" text-anchor="end" font-size="13" fill="#111827">Strided access</text><rect x="260" y="150" width="52.2" height="12" fill="#d97706" rx="3"/><rect x="260" y="166" width="33.9" height="12" fill="#2563eb" rx="3"/><text x="320.2" y="160" font-size="11" fill="#111827">137272152</text><text x="301.9" y="176" font-size="11" fill="#111827">89205438</text><text x="246" y="214" text-anchor="end" font-size="13" fill="#111827">Rolling hash</text><rect x="260" y="194" width="177.3" height="12" fill="#d97706" rx="3"/><rect x="260" y="210" width="202.8" height="12" fill="#2563eb" rx="3"/><text x="445.3" y="204" font-size="11" fill="#111827">466165434</text><text x="470.8" y="220" font-size="11" fill="#111827">533116157</text><text x="246" y="258" text-anchor="end" font-size="13" fill="#111827">Row-major traversal</text><rect x="260" y="238" width="86.7" height="12" fill="#d97706" rx="3"/><rect x="260" y="254" width="62.2" height="12" fill="#2563eb" rx="3"/><text x="354.7" y="248" font-size="11" fill="#111827">227876540</text><text x="330.2" y="264" font-size="11" fill="#111827">163521950</text><text x="246" y="302" text-anchor="end" font-size="13" fill="#111827">Column-major traversal</text><rect x="260" y="282" width="87.7" height="12" fill="#d97706" rx="3"/><rect x="260" y="298" width="61.2" height="12" fill="#2563eb" rx="3"/><text x="355.7" y="292" font-size="11" fill="#111827">230470980</text><text x="329.2" y="308" font-size="11" fill="#111827">160786661</text><text x="246" y="346" text-anchor="end" font-size="13" fill="#111827">Small sort</text><rect x="260" y="326" width="339.0" height="12" fill="#d97706" rx="3"/><rect x="260" y="342" width="273.5" height="12" fill="#2563eb" rx="3"/><text x="607.0" y="336" font-size="11" fill="#111827">891100951</text><text x="541.5" y="352" font-size="11" fill="#111827">718860350</text><text x="246" y="390" text-anchor="end" font-size="13" fill="#111827">Prefix sum</text><rect x="260" y="370" width="163.8" height="12" fill="#d97706" rx="3"/><rect x="260" y="386" width="112.4" height="12" fill="#2563eb" rx="3"/><text x="431.8" y="380" font-size="11" fill="#111827">430575005</text><text x="380.4" y="396" font-size="11" fill="#111827">295358262</text><text x="246" y="434" text-anchor="end" font-size="13" fill="#111827">Bit mix</text><rect x="260" y="414" width="820.0" height="12" fill="#d97706" rx="3"/><rect x="260" y="430" width="768.8" height="12" fill="#2563eb" rx="3"/><text x="1088.0" y="424" font-size="11" fill="#111827">2155642580</text><text x="1036.8" y="440" font-size="11" fill="#111827">2020936239</text><text x="246" y="478" text-anchor="end" font-size="13" fill="#111827">Indirect gather</text><rect x="260" y="458" width="96.5" height="12" fill="#d97706" rx="3"/><rect x="260" y="474" width="67.2" height="12" fill="#2563eb" rx="3"/><text x="364.5" y="468" font-size="11" fill="#111827">253654298</text><text x="335.2" y="484" font-size="11" fill="#111827">176561610</text><text x="246" y="522" text-anchor="end" font-size="13" fill="#111827">2D stencil</text><rect x="260" y="502" width="76.0" height="12" fill="#d97706" rx="3"/><rect x="260" y="518" width="76.7" height="12" fill="#2563eb" rx="3"/><text x="344.0" y="512" font-size="11" fill="#111827">199829683</text><text x="344.7" y="528" font-size="11" fill="#111827">201704783</text><rect x="1010" y="64" width="14" height="14" fill="#d97706" rx="2"/><text x="1032" y="76" font-size="13" fill="#111827">GCC</text><rect x="1080" y="64" width="14" height="14" fill="#2563eb" rx="2"/><text x="1102" y="76" font-size="13" fill="#111827">Clang</text></svg>