<svg xmlns="http://www.w3.org/2000/svg" width="980" height="520" viewBox="0 0 980 520" role="img"><rect width="980" height="520" fill="#ffffff"/><text x="90" y="36" font-size="28" font-weight="700" fill="#111827">Small sort</text><text x="90" y="60" font-size="15" fill="#6b7280">Per-run runtime across 5 measured runs</text><line x1="90" y1="80.0" x2="940" y2="80.0" stroke="#d1d5db" stroke-width="1"/><text x="78" y="85.0" text-anchor="end" font-size="12" fill="#6b7280">76.9</text><line x1="90" y1="150.0" x2="940" y2="150.0" stroke="#d1d5db" stroke-width="1"/><text x="78" y="155.0" text-anchor="end" font-size="12" fill="#6b7280">61.5</text><line x1="90" y1="220.0" x2="940" y2="220.0" stroke="#d1d5db" stroke-width="1"/><text x="78" y="225.0" text-anchor="end" font-size="12" fill="#6b7280">46.2</text><line x1="90" y1="290.0" x2="940" y2="290.0" stroke="#d1d5db" stroke-width="1"/><text x="78" y="295.0" text-anchor="end" font-size="12" fill="#6b7280">30.8</text><line x1="90" y1="360.0" x2="940" y2="360.0" stroke="#d1d5db" stroke-width="1"/><text x="78" y="365.0" text-anchor="end" font-size="12" fill="#6b7280">15.4</text><line x1="90" y1="430.0" x2="940" y2="430.0" stroke="#d1d5db" stroke-width="1"/><text x="78" y="435.0" text-anchor="end" font-size="12" fill="#6b7280">0.0</text><rect x="120.6" y="80.0" width="47.6" height="350.0" fill="#d97706" rx="4"/><rect x="181.8" y="120.8" width="47.6" height="309.2" fill="#2563eb" rx="4"/><text x="175.0" y="454" text-anchor="middle" font-size="12" fill="#111827">Run 1</text><rect x="290.6" y="88.3" width="47.6" height="341.7" fill="#d97706" rx="4"/><rect x="351.8" y="116.5" width="47.6" height="313.5" fill="#2563eb" rx="4"/><text x="345.0" y="454" text-anchor="middle" font-size="12" fill="#111827">Run 2</text><rect x="460.6" y="87.2" width="47.6" height="342.8" fill="#d97706" rx="4"/><rect x="521.8" y="115.3" width="47.6" height="314.7" fill="#2563eb" rx="4"/><text x="515.0" y="454" text-anchor="middle" font-size="12" fill="#111827">Run 3</text><rect x="630.6" y="84.2" width="47.6" height="345.8" fill="#d97706" rx="4"/><rect x="691.8" y="118.2" width="47.6" height="311.8" fill="#2563eb" rx="4"/><text x="685.0" y="454" text-anchor="middle" font-size="12" fill="#111827">Run 4</text><rect x="800.6" y="85.9" width="47.6" height="344.1" fill="#d97706" rx="4"/><rect x="861.8" y="120.4" width="47.6" height="309.6" fill="#2563eb" rx="4"/><text x="855.0" y="454" text-anchor="middle" font-size="12" fill="#111827">Run 5</text><text x="90" y="478" font-size="14" fill="#111827">GCC mean: 75.791 ms</text><text x="330" y="478" font-size="14" fill="#111827">Clang mean: 68.509 ms</text><text x="610" y="478" font-size="14" font-weight="700" fill="#111827">Winner: Clang (9.61%)</text><rect x="90" y="492" width="14" height="14" fill="#d97706" rx="2"/><text x="112" y="504" font-size="13" fill="#111827">GCC</text><rect x="180" y="492" width="14" height="14" fill="#2563eb" rx="2"/><text x="202" y="504" font-size="13" fill="#111827">Clang</text></svg>