<?xml version="1.0" encoding="UTF-8"?>
<svg version="1.1" viewBox="0 0 2000 2000" width="500" height="500" xmlns="http://www.w3.org/2000/svg">
<path transform="translate(0)" d="m0 0h2e3v2e3h-2e3z" fill="#FCFDFC"/>
<path transform="translate(243,743)" d="m0 0h19l10 3 10 7 7 8 5 10 2 9v9l-4 15-8 11-10 7-8 4-1 26 122-1v-24l-14-9-5-5-6-8-4-10-1-14 3-12 6-11 7-7 12-7 5-1h19l10 3 9 6 9 10 5 12 1 5v11l-4 13-5 8-4 5-10 7-7 3-1 30 6 2 8 6 8 8 3 4 21 1 13 5 10 8 6 9 4 11 1 5-1 13-4 12-7 9-8 7-8 4-8 2h-13v16l-4 16-7 12-9 8-14 7-7 2h-8v25h78l16 4 11 7 9 10 5 10 3 11 1 19 15-1 11-4 7-8 2-7v-152l-15-8-9-8-7-11-4-12v-26l2-4 4-3 7-1 7 3 3 4 1 4 1 20 4 8 8 7 6 2h10l9-3 7-8 3-8 1-19 3-6 6-4 8 1 5 5 2 5v13l-2 17-6 12-8 9-11 7-8 3-1 148-2 14-5 12-8 10-10 7-12 5-14 2h-10v177l-2 19-4 10-8 11-10 8-9 4-12 2h-293l-10-2-12-6-8-7-9-14-3-13-1-188-20-2-12-4-9-5-7-6-9-14-3-10-1-8-1-162-14-7-10-9-6-9-4-11-1-17 1-13 5-5 2-1h7l6 4 3 5 1 20 4 10 7 6 8 3h8l11-4 6-7 3-7 1-20 5-8 5-2 8 1 5 5 2 6v12l-2 13-4 11-8 11-10 8-11 5h-2v161l1 7 6 9 9 6 4 1h16l1-19 4-13 7-11 7-7 10-6 15-4 78-1v-23l-14-3-14-7-6-5-8-11-4-9-2-10-1-17h-11l-13-4-10-7-7-8-5-10-2-10v-8l3-12 6-10 8-8 8-5 9-3 22-1 6-8 7-7 9-5h2l-1-31-7-2-9-7-7-8-5-10-2-11 1-12 5-12 6-8 7-6 10-5z" fill="#040303"/>
<path transform="translate(184,1072)" d="m0 0h284l10 3 6 4 6 7 2 9v226l-3 7-4 6-7 5-11 3h-11l-1-3v-60l-4-24-6-18-10-19-12-16-11-12-15-11-14-8-19-7-16-4-8-1h-28l-20 4-16 6-16 8-12 8-12 11-8 8-9 12-7 12-8 20-4 18-2 15-1 61h-11l-13-4-7-7-4-9-1-4v-224l3-8 6-8 6-4z" fill="#FD6A66"/>
<path transform="translate(319,1183)" d="m0 0h16l19 3 19 7 14 8 11 10 5 5 9 11 9 16 6 16 3 15 1 10v56l-2 2h-205l-2-2v-51l3-24 5-18 8-16 9-12 13-13 14-10 14-7 15-4z" fill="#FA454A"/>
<path transform="translate(251,877)" d="m0 0h150l9 5 5 5 3 8 1 9-1 76-5 10-7 6-7 3h-144l-10-4-7-7-3-7v-86l5-10 9-7z" fill="#D1D3E7"/>
<path transform="translate(172,271)" d="m0 0h18l16 3 12 5 11 7 10 9 8 10 7 14 4 17v19l-4 15-8 16-7 9-10 9-11 8h-2l-2 4-3 8-1 39-3 5h-6v11l-4 8-5 4-6 2h-9l-8-3-5-6-3-10v-5l-8-3-1-41-2-8-5-5-13-10-8-7-9-12-7-15-3-14v-17l3-14 5-12 7-11 5-6h2l2-4 11-8 14-7 11-3z" fill="#E3E6EF"/>
<path transform="translate(860,357)" d="m0 0 16 1 12 5 8 6 6 7 6 13 3 14 1 10v9l-2 16-4 13-6 10-8 8-10 6-10 3h-15l-12-3-9-6-7-6v59l-1 1h-28v-163l4-1 25 1v13l1 2 11-11 9-5z" fill="#040303"/>
<path transform="translate(655,357)" d="m0 0h11l10 2 8 4 7 7 5 8 8-11 9-6 7-3 14-1 12 2 9 5 8 9 4 11 1 9v82l-1 1h-28l-1-81-3-8-8-4h-11l-8 4-6 7-3 9-1 67-2 6h-27l-1-81-3-7-4-4-3-1h-12l-7 3-3 1-6 12-1 4-1 72-1 1h-28v-116l10-1 18 1v15l5-4 5-5 8-6z" fill="#040303"/>
<path transform="translate(510,357)" d="m0 0 16 1 14 4 10 6 9 8 6 10 4 10 2 10v24l-4 16-6 11-5 6-8 6-12 6-13 3h-15l-15-3-14-7-6-5-6-8-6-12-3-12-1-17 2-15 6-15 6-9 10-9 13-6 7-2z" fill="#040303"/>
<path transform="translate(1323,319)" d="m0 0h23l16 3 12 5 9 6 5 4-2 5-9 12-5 6-6-2-9-6-7-3-11-2h-8l-12 3-6 5-2 5 2 10 4 4 9 4 12 3 21 5 13 5 6 4 8 8 6 11 2 11v12l-3 12-5 9-8 9-12 7-13 4-6 1h-22l-18-4-16-8-9-7-7-9 2-5 8-11 7-7 4 2 12 12 10 5 13 3h13l9-3 4-4 3-7v-9l-4-6-5-4-26-7-20-6-11-7-7-7-4-7-3-7-1-6v-15l4-11 6-9 8-7 10-5z" fill="#FA464B"/>
<path transform="translate(172,271)" d="m0 0h18l16 3 12 5 11 7 10 9 8 10 7 14 4 17v19l-4 15-8 16-7 9-10 9-11 8h-2l-2 4-3 8-1 39-3 5h-6v11l-4 8-5 4-6 2h-9l-8-3-5-6-3-10v-5l-8-3-1-41-2-8-5-5-13-10-8-7-9-12-7-15-3-14v-17l3-14 5-12 7-11 5-6h2l2-4 11-8 14-7 11-3zm3 8-14 3-13 5-10 7-11 11-8 13-5 15v24l4 13 6 11 7 8 7 7 11 8 5 5 4 6 4 9h15v-25l-8-10-7-6-7-8-9-9h-10l-7-6-1-3v-7l4-6 4-2h8l6 4 1 1 1 12 4 6 9 10 10 10h2v-18l-10-8-4-7v-9l4-8 1-3 5-2 7-2 9 1 7 5 3 5 1 12-3 7-5 5-7 5v16l2 1 8-7 13-14 3-4v-9l3-6 5-3h8l6 4 2 3v9l-5 6-5 2h-9l-9 11-21 21v26h15l2-1 2-9 9-10 13-10 6-5 9-13 5-11 2-9v-20l-3-13-7-14-10-12-13-9-10-5-10-3-7-1z" fill="#050303"/>
<path transform="translate(317,1207)" d="m0 0h18l13 4 11 6 10 9 5 7 6 13 2 9v11l-2 12-8 16-10 11-11 7-11 4-7 1h-15l-14-4-12-7-10-10-8-15-3-11v-16l3-11 7-14 11-11 14-8z" fill="#040303"/>
<path transform="translate(1768,357)" d="m0 0h25l12 4 8 6 6 7 4 10 1 10 1 56 1 1 11 1 1 6v15l-3 3-10 2h-12l-11-8-4-7v-2l-4 2-5 6-11 8-9 3h-12l-11-4-8-6-7-7-4-9-1-14 2-11 6-9 5-4 13-6 16-4 19-5 5-4v-8l-2-4-6-2h-15l-10 3-14 10-5-1-5-6-6-10 1-4 10-7 16-8z" fill="#FA474C"/>
<path transform="translate(367,320)" d="m0 0h25l15 3 16 8 7 6 9 14 1 4-21 13-4-1-7-10-7-6-11-4h-18l-10 3-9 6-6 8-5 13-2 16v12l2 15 5 14 5 6v2l4 2 7 4 12 3h9l11-2 8-4 5-4 7-12 2-7 6 2 17 9 1 5-5 12-9 12-11 8-12 5-16 3h-13l-15-2-12-4-11-6-12-11-9-14-4-11-3-14-1-9v-15l3-21 5-14 7-12 8-9 10-7 13-6z" fill="#040303"/>
<path transform="translate(1113,357)" d="m0 0h9l13 2 13 5 9 7 6 8 5 12 1 5v27l-1 1h-76l3 12 4 8 7 6 6 2h16l9-3 7-6 3-5 6 2 14 9 1 4-6 8-8 8-12 6-11 3h-19l-14-3-14-7-9-8-6-9-5-14-2-14v-13l3-14 5-12 6-9 10-9 12-6z" fill="#040303"/>
<path transform="translate(1507,358)" d="m0 0h12l2 6v31l-1 81-3 1h-24l-2-2v-14h-2l-7 8-5 4-12 6-10 1-15-2-11-7-7-8-4-10-2-7v-87h30l1 1 1 80 3 7 6 4h15l7-3 5-5 3-8 1-6 1-63 1-7z" fill="#FA454A"/>
<path transform="translate(1583,331)" d="m0 0h4l1 26 9 1h22l1 1v23l-1 1-16 1h-16l1 56 3 7 4 3h11l6-2h5l4 9 3 9-1 5-14 7-8 2h-13l-9-3-10-6-7-8-4-8-2-9v-62h-16l-1-1v-23l1-1 15-1 1-22z" fill="#FA454A"/>
<path transform="translate(1e3 313)" d="m0 0h29l1 134 2 4 2 1 10 1 1 1 2 14v7l-2 2-4 1h-18l-12-6-7-8-3-7-1-5z" fill="#040303"/>
<path transform="translate(1696,357)" d="m0 0h11l10 2 1 3-3 16-3 9-3 2-5-2h-13l-6 3-5 6-4 10-1 7-1 58-2 6h-29v-117l1-1 23-1 5 1v16l4-2 1-2h2l2-4 11-9z" fill="#FA454A"/>
<path transform="translate(1248,358)" d="m0 0h10l9 3v8l-4 18-9-1h-11l-8 4-6 7-3 7-1 5-1 66-1 1h-28v-116h27l1 2v15l3-1 6-9 10-7z" fill="#040303"/>
<path transform="translate(961,359)" d="m0 0h6l1 1v115l-1 1h-28v-116z" fill="#040303"/>
<path transform="translate(509,382)" d="m0 0h11l9 3 5 4 5 9 3 12v14l-2 11-5 10-7 6-7 2h-14l-9-4-6-7-4-11-1-8v-13l3-12 5-8 7-6z" fill="#FBFAFA"/>
<path transform="translate(850,382)" d="m0 0h10l9 3 6 5 5 10 2 10v17l-3 12-6 8-5 4-6 2h-14l-10-5-6-9-3-9-1-7v-11l2-11 5-10 7-6z" fill="#FBFBFA"/>
<path transform="translate(1456,1104)" d="m0 0 3 1 4 16 6 27 2 1 1-10 8-31 2-3h11l3 8 9 34 1 2 4-21 5-21 1-2h13l-1 10-12 51-3 6-1 1h-13l-3-9-9-31h-1l-6 25-4 15h-16l-1-1-4-20-8-37-1-10z" fill="#FA494D"/>
<path transform="translate(321,1232)" d="m0 0h13l9 4 7 6 6 11 1 5v9l-3 8-6 9-10 7-4 1h-14l-11-4-7-7-5-11-1-3v-10l4-11 8-9 7-4z" fill="#FD6966"/>
<path transform="translate(1125,987)" d="m0 0h6l4 3-2 4-3 5 2 7v11l-5 6-9 4-13 2v2l19 2 9 4 3 4 1 3v9l-4 6-6 4-14 3-13-1-8-3-5-6 1-8 4-6 2-1-1-5-1-1v-6l5-4-1-4-4-5-1-8 3-8 7-6 7-2h13l2-1z" fill="#FA4B4F"/>
<path transform="translate(1330,987)" d="m0 0h8l2 4-5 6 1 7 1 4v7l-3 6-10 6-15 1 2 3 18 2 8 3 4 5 2 5-1 7-4 6-8 5-8 1h-17l-8-3-4-6-1-7 4-5 4-4-3-4v-6l6-6-5-7-1-3v-9l4-7 3-3 8-3h15z" fill="#FA4B4E"/>
<path transform="translate(1852,1101)" d="m0 0h13v71l-1 1h-9l-3-1v-5l-5 3-4 3h-13l-6-4-5-6-3-7v-18l4-10 6-5 7-3h9l9 4z" fill="#FA494D"/>
<path transform="translate(1282,972)" d="m0 0 2 1v70l-1 2h-8l-4-1v-4l-5 2-2 2-5 1h-11l-8-6-4-8-1-15 2-11 5-8 7-4 4-1h8l10 5v-23l1-1z" fill="#FA4A4E"/>
<path transform="translate(1161,859)" d="m0 0 6 1 2 2-1 5-4 4 2 8v8l-4 7-7 4-15 2v4l21 2 6 3 4 5 1 7-2 6-5 6-7 3-5 1h-13l-9-2-5-3-3-5 1-7 3-5 4-1-3-7v-6l5-4-2-5-3-5v-10l3-6 4-4 7-2h11l5 1 2-6z" fill="#040303"/>
<path transform="translate(1422,865)" d="m0 0 2 2 2 4 5-4 5-2h8l7 3 5 5 3 6 1 4v16l-5 10-7 6-5 2h-7l-8-4-4-3 1 26h-13v-69l1-1z" fill="#040303"/>
<path transform="translate(958,1121)" d="m0 0h9l8 4 5 7 2 7v15l-4 10-8 7-5 2h-7l-8-4-3-3v25l-1 1h-12v-70h12l1 4 5-2z" fill="#040303"/>
<path transform="translate(1658,848)" d="m0 0 19 1 8 3 5 5 3 5 1 4v9l-3 7-4 5-8 4-5 1-14 1-1 23-2 1-11-1-1-1-1-65 1-1z" fill="#FA494D"/>
<path transform="translate(706,992)" d="m0 0 13 1 8 4 6 9 2 6v15l-4 8-9 8-9 3h-7l-10-4-5-5-4-5-2-6v-15l4-9 5-6 7-3z" fill="#FA4C4F"/>
<path transform="translate(1333,1121)" d="m0 0h10l5 3 3 4 3-1 4-4 5-2h10l5 3 4 6 1 4v37l-2 1h-9l-1-1-2-37-1-1h-12l-2 5-1 31-1 2-11 1-1-2-1-36-1-1h-10l-3 2-1 4-1 22-1 10-3 1h-8l-1-1v-48l1-1h11v5l4-2 4-3z" fill="#040303"/>
<path transform="translate(870,1121)" d="m0 0h10l5 3 3 4 4-2 5-4 3-1h10l6 4 4 8v38h-12l-1-1-1-37h-11l-3 3-1 3-2 32h-11l-1-4-1-32-1-2h-9l-4 3-1 3-2 32-11 1-1-1v-49h12l1 5 5-3z" fill="#040303"/>
<path transform="translate(1333,865)" d="m0 0 3 1 1 5 4-2 6-4h10l5 2 4 6 7-6 5-2h10l5 3 4 5 1 6v34l-1 3h-10l-2-1v-23l-1-14-1-1h-9l-4 3-1 3-1 32h-12l-1-1-1-35-1-2h-10l-3 3-1 2-2 33-1 1h-10l-1-1v-49z" fill="#040303"/>
<path transform="translate(1250,1248)" d="m0 0h11l8 3 7 7 3 7 1 5v13l-4 8-8 7-6 3h-16l-8-5-6-8-2-7v-13l4-10 8-7z" fill="#FA494D"/>
<path transform="translate(1558,1120)" d="m0 0 11 1 6 3 7 8 3 9v14l-4 8-8 7-5 3-4 1h-12l-9-7-6-7-2-6v-12l3-10 3-5 10-6z" fill="#FA4A4E"/>
<path transform="translate(1308,1248)" d="m0 0h9l10 4 5 5 4 6 2 7v11l-4 10-8 7-6 3-11 1-9-3-9-9-3-7v-15l4-10 8-7z" fill="#FA4B4E"/>
<path transform="translate(1722,864)" d="m0 0h8l9 3 6 5 5 9 1 4v14l-5 9-7 6-7 3h-14l-6-3-7-7-4-9v-13l3-9 7-8 6-3z" fill="#FA4B4F"/>
<path transform="translate(284,1023)" d="m0 0h84l1 1v24h-85z" fill="#FAF9FA"/>
<path transform="translate(1183,976)" d="m0 0h33l11 1v11l-1 1h-29v14l26 1v12l-26 1v15h30l2 10v2l-8 1h-36l-3-1v-67z" fill="#FA4B4F"/>
<path transform="translate(1759,865)" d="m0 0h9l2 2 7 28 2 1 2-11 5-18 2-2h9l2 2 8 27 2-1 5-23 2-5h11l1 3-8 32-3 15-1 2-15-1-8-30-2-1-3 15-4 16-6 1h-9l-2-6-9-39v-6z" fill="#FA4B4E"/>
<path transform="translate(1283,865)" d="m0 0h12l7 3 7 6 3 5 1 4v16l-3 7-4 5-9 5-4 1h-8l-9-3-5-4-5-8-2-12 2-10 6-10 7-4z" fill="#040303"/>
<path transform="translate(806,1121)" d="m0 0h11l8 3 8 9 2 6v16l-4 8-8 7-9 3-11-1-8-4-5-6-3-6-1-10 2-10 6-10 8-4z" fill="#040303"/>
<path transform="translate(1821,993)" d="m0 0h12l8 3 7 8 3 8v14l-4 9-8 7-8 3h-8l-10-4-5-5-4-6-2-12 2-10 4-7 7-6z" fill="#040303"/>
<path transform="translate(1591,993)" d="m0 0h12l9 4 6 7 3 7v15l-3 8-7 7-10 4h-8l-10-4-7-7-3-7-1-10 3-12 8-9z" fill="#040303"/>
<path transform="translate(293,950)" d="m0 0h67l7 4 2 4v8l-3 5-6 3-5 1h-59l-9-4-3-5v-9l4-5z" fill="#040303"/>
<path transform="translate(830,976)" d="m0 0h14l9 4 6 4 3 5-1 4-7 5-4-2-6-5-2-1h-12l-7 6-3 7v15l4 10 5 3 10 1 7-3 7-9 5 2 5 4-1 5-4 6-10 7-3 1h-18l-9-4-5-4-6-10-2-7v-19l5-12 5-6 8-5z" fill="#FA4B4E"/>
<path transform="translate(685,849)" d="m0 0 2 1 1 46 3 6 4 2h12l5-3 2-4 1-47h13v44l-3 12-5 5-6 4-9 2h-8l-9-2-8-5-4-6-2-8v-46z" fill="#040303"/>
<path transform="translate(1367,992)" d="m0 0h11l9 4 5 7 2 6v12l-1 1-18 1h-14l4 8 2 1h11l5-4 6 1 4 2-1 5-7 7-8 3h-7l-10-3-8-6-4-7-1-4v-16l5-9 7-6z" fill="#FA4C4F"/>
<path transform="translate(1720,1120)" d="m0 0h14l6 3 4 5 2 12 1 20 4 3v8l-2 2-13-1-1-4-5 1-3 1v2l-2 1h-13l-6-5-2-5v-12l4-5 11-4 12-3-1-5-7-1-9 3-5 1-4-5 1-5z" fill="#FA474C"/>
<path transform="translate(1854,864)" d="m0 0h10l10 5 5 10 1 4v10l-5 2h-26v6l5 3h11l3-4h5l6 4-1 4-8 7-5 2h-16l-7-4-7-9-2-5v-15l4-9 4-5 9-5z" fill="#FA4A4E"/>
<path transform="translate(1638,1101)" d="m0 0h9l1 1v36l3-1 6-9 5-5 4-2h10l-1 5-13 16 1 6 7 10 8 11-1 4h-12l-8-10-6-9-3-1v19l-3 1h-9l-2-1v-70z" fill="#FA474C"/>
<path transform="translate(1543,865)" d="m0 0h14l8 4 4 5 2 6 1 10-2 4h-27l-4-1 1 6 2 4 4 2h9l4-2 3-3 4 1 5 5-5 6-10 5h-11l-8-3-6-5-4-6-2-13 2-10 5-8 6-5z" fill="#040303"/>
<path transform="translate(1224,849)" d="m0 0h14l10 4 7 6 1 5-7 5-4-1-2-4-8-3h-9l-7 4-4 8-1 5v9l2 8 4 6 4 3 9 1 8-3 4-5 2-3 7 1 3 2-1 7-7 8-8 4-5 1-13-1-10-4-7-7-4-8-2-10 1-14 3-9 4-6 7-6z" fill="#040303"/>
<path transform="translate(899,865)" d="m0 0h13l8 5 3 8 1 26 5 5v6l-3 1h-8l-5-5-2-1-7 6-10 1-7-3-4-5-1-3v-10l5-6 8-3 11-3h4l-1-8h-10l-11 5-5-6 1-3 8-5z" fill="#040303"/>
<path transform="translate(746,1105)" d="m0 0h14l10 4 7 6 1 4-6 6h-4l-5-6-5-2h-10l-7 4-3 5-2 10 1 12 4 8 5 4 9 1 7-2 6-7 2-3 5 2 4 2-1 7-7 8-9 4h-16l-9-3-9-8-4-8-2-10v-8l2-10 5-10 8-7z" fill="#040303"/>
<path transform="translate(847,865)" d="m0 0h13l6 3 5 5 3 7v13l-9 1h-24l4 9 4 2h9l8-5 4 2 3 2-1 5-8 6-6 2h-9l-9-3-5-4-4-6-2-6v-15l4-9 8-7z" fill="#040303"/>
<path transform="translate(985,846)" d="m0 0h11l1 25 8-5 4-1h9l6 4 3 3 2 8v34l-1 1h-11l-1-26-1-11-2-1h-10l-4 3-1 3-1 24-1 9h-10l-2-1v-68z" fill="#040303"/>
<path transform="translate(1413,1121)" d="m0 0h12l7 3 6 7 2 5v13l-2 1h-30l2 7 3 3 9 1 8-4 7 1 2 2-1 4-7 6-7 3h-9l-10-4-5-5-4-6-2-12 2-10 5-8 6-5z" fill="#040303"/>
<path transform="translate(1700,993)" d="m0 0h14l7 4 3 5 1 5 1 25 5 4v6l-3 2h-9l-3-4-2-3-7 6-5 2h-7l-6-3-4-6-1-3v-8l4-6 5-3 17-4 2-1-1-6-2-1h-8l-10 5-3-1-1-5h-2l1-3 8-5z" fill="#040303"/>
<path transform="translate(1065,1121)" d="m0 0h13l8 4 4 5 2 6v13l-13 1h-19l2 7 3 3 3 1h7l10-5 7 5-2 4-8 6-7 2h-7l-10-3-5-4-5-8-2-12 2-10 5-8 6-5z" fill="#040303"/>
<path transform="translate(1271,1121)" d="m0 0h14l7 4 3 5 1 4 1 26 5 3v6l-3 3h-8l-3-3-1-5-8 6-6 3h-7l-6-4-4-5-1-3v-8l4-6 5-3 17-4 2-1-1-6-2-1h-7l-8 3-2 2h-3l-3-5v-4l8-5z" fill="#040303"/>
<path transform="translate(1769,1120)" d="m0 0 3 1 1 5h2l5-5 3-1h10l8 3 4 8 1 9v27l-1 6-13-1-2-37-7-2-7 3-2 9-1 28h-12l-1-1-1-13v-24l1-13 1-1z" fill="#FA454A"/>
<path transform="translate(1036,992)" d="m0 0 10 1 2 4 4-1 6-4h11l6 3 3 3 2 6v41h-12l-1-1-2-37-1-1h-11l-3 3-1 10-1 26h-12l-1-1-1-7v-27l1-17z" fill="#FA4B4E"/>
<path transform="translate(872,993)" d="m0 0h12l1 30 1 7 3 2h7l4-3 1-3 2-33h12l1 1v51l-12-1-1-6-3 1-4 5-8 2-10-2-5-6-2-5v-39z" fill="#FA4A4E"/>
<path transform="translate(1166,1106)" d="m0 0h42v10l-1 1h-26l-1 1v16h26v10l-1 1h-25l-1 26-5 1h-7l-1-1z" fill="#040303"/>
<path transform="translate(1181,1232)" d="m0 0h42l1 1v11l-1 1h-17v48l-1 8h-11l-3-1v-48l-1-6-18-1v-12z" fill="#FA454A"/>
<path transform="translate(666,972)" d="m0 0h14l3 2v8l-2 3h-10l-3 1-1 6 13 1 1 1v10l-3 1h-10l-1 38-1 1h-13l-1-29v-9l-6-3-1-5 3-5 3-3 3-10 5-5z" fill="#FA454A"/>
<path transform="translate(1887,993)" d="m0 0h10l6 3 4 7 1 5v34l-7 2h-5l-1-4-1-33-2-2h-10l-4 4-1 2-2 32-11 1-1-1v-49h12l2 6 7-6z" fill="#040303"/>
<path transform="translate(1482,993)" d="m0 0h10l6 3 3 4 2 7v36h-12l-1-3v-16l-1-19h-12l-4 4-1 2-1 9-1 23-11 1-1-1v-49h12l1 6 8-6z" fill="#040303"/>
<path transform="translate(1095,865)" d="m0 0h9l7 4 4 9v36l-1 1h-11l-2-36-1-2h-11l-4 3-1 3-1 31-1 1h-11l-1-1v-48h12v5l4-2 5-3z" fill="#040303"/>
<path transform="translate(1525,993)" d="m0 0 3 2 1 5h2l4-5 5-2h10l6 3 4 6 1 5v36h-12l-2-37-2-1h-10l-4 4-1 3-1 23-1 8h-12v-47l1-2z" fill="#040303"/>
<path transform="translate(753,865)" d="m0 0 3 3 2 4 7-6 3-1h9l6 3 4 5 2 8v34h-12l-1-3v-29l-1-5-2-1h-10l-4 4-1 2-2 32-1 1h-10l-1-1v-49z" fill="#040303"/>
<path transform="translate(1389,1248)" d="m0 0h9l9 2 5 4-2 6-3 4-5-2-3-1h-11l2 5 15 4 6 4 4 8v6l-5 8-6 4-4 1h-15l-8-4-3-4 1-7 3-2 5 1 9 4h6l2-7-14-3-8-5-3-5v-8l4-8 5-3z" fill="#FA4A4E"/>
<path transform="translate(331,1204)" d="m0 0 10 2 4 1 11 5 13 7 4 5 2 7 2 1 1 6 3 2 2 10 3 3-2 2v11h3v16h-2v4h-2l-1 6-4 4-5 8-4 1-1 3-7 1-5 4-12 4-3 2-11 2-6-1h-9l-10-2-3-2v-2l-8-2-1-2-4-1-2-1v-2l-6-2-1-4-1-3-2-2-4-8-5-4-1-5v-5l-2-1h2l-2-4v-3h2v-3h-2l-1-4 3-6v-8l3-6 1-4 1-2h2l2-5 7-7 4-1 1 4-8 9-6 13-2 9v16l4 13 7 13 9 9 12 7 14 4h15l10-2 12-5 10-8 7-9 7-14 2-12v-11l-3-11-7-14-9-10-10-6-9-4-17-4v-1z" fill="#FD6764"/>
<path transform="translate(981,981)" d="m0 0h2l1 2 1 9 13 1 1 8-1 3h-13v16l1 11 12 1v13l-17 1-8-7-3-7v-28h-7v-11l7-1 1-8 6-2z" fill="#FA4B4F"/>
<path transform="translate(934,982)" d="m0 0h10l1 1v9l14 1 1 3-1 8h-14l1 26 2 1 11 1 1 1v9l-2 3-7 1h-8l-5-3-5-6-2-11v-22h-6l-2-4v-5l3-2h5l1-10z" fill="#FA4B4E"/>
<path transform="translate(948,865)" d="m0 0h13l9 4 1 5-5 5-8-3h-9l-1 5 1 2 15 4 5 3 4 5 1 6-2 7-5 5-5 3-5 1h-7l-11-4-5-4 1-5 6-4 5 4 9 2 5-2 1-6-12-3-8-4-5-6v-10l4-6z" fill="#040303"/>
<path transform="translate(1627,994)" d="m0 0h12l3 5 10 27 2 2 9-27 3-7h13l-6 17-9 24-4 8-1 1h-13l-3-5-16-44z" fill="#040303"/>
<path transform="translate(1746,983)" d="m0 0h8v10h13l1 1v9l-1 1h-13v20l1 7 1 1h11l1 1v9l-8 3h-7l-6-3-5-7-1-4v-27l-7-1-1-1v-7l7-2 1-9z" fill="#040303"/>
<path transform="translate(1351,1229)" d="m0 0h11l2 2v54l5 6 2 1-1 7-2 2h-9l-6-3-4-8v-59z" fill="#FA464A"/>
<path transform="translate(395,767)" d="m0 0h9l8 4 5 6 1 3v10l-4 6-5 5-4 2h-10l-8-5-4-5-2-6 1-8 4-6 6-5z" fill="#FD6965"/>
<path transform="translate(319,1183)" d="m0 0h16l19 3 19 7 14 8 11 10 5 5 9 11 9 16 6 16 1 4v10l-2-3-3-12-3-6v-4h-2v-5h-2v-3l-4-1-1-4-3-3-3-1 2-1-4-3v-2l-2-1v-1l-2-6h-2l-5-5v-2h-3l-2-3-2 1-1-3-5-5-16-8-9-3-12-2h-36l-16 4-8 4-5 4-3 3-3 4-6 2-6 4h-3v4h-2l-2 8-3 1-4 5-1 6h-2l-2 9-5 6v3l-2 7-3 8h-2v4h-2l-1 2v-10l5-18 8-16 9-12 13-13 14-10 14-7 15-4z" fill="#FD6663"/>
<path transform="translate(249,767)" d="m0 0h9l6 3 6 7 1 3v10l-6 9-7 4h-10l-8-5-4-6-1-3v-8l4-8 6-5z" fill="#FD6965"/>
<path transform="translate(1114,380)" d="m0 0h9l10 3 6 7 3 10v5l-9 1h-39l-1-1 1-8 6-10 5-4z" fill="#FBF7F7"/>
<path transform="translate(773,992)" d="m0 0 4 2v9l-2 4h-9l-4 2-1 2-1 25-1 8-2 1h-11l-1-1v-50l1-1h12l2 3 6-2z" fill="#FA494D"/>
<path transform="translate(1792,420)" d="m0 0h2v16l-3 9-3 4h-2v2l-8 4h-12l-6-4-3-5v-11l3-5 13-5 11-3z" fill="#FCFDFC"/>
<path transform="translate(951,311)" d="m0 0 9 1 6 4 5 8v9l-3 6-5 4-8 3-10-2-5-3-4-7v-11l4-7 7-4z" fill="#040303"/>
<path transform="translate(1917,864)" d="m0 0 4 2-1 11-1 1h-8l-6 4-1 34-4 1-10-1-1-1v-49l1-1h11l1 4 6-1 3-3z" fill="#FA494D"/>
<path transform="translate(1596,1121)" d="m0 0h11l2 5h2l4-4 2-1h10l1 2v8l-2 3-10 1-5 5-1 6-1 27h-11l-2-1-1-23v-26z" fill="#FA454A"/>
<path transform="translate(1499,846)" d="m0 0h12l1 60h6l1 10-7 1-8-2-4-5-1-3z" fill="#040303"/>
<path transform="translate(802,846)" d="m0 0h12l1 59 6 2 1 8-2 2-10-1-6-5-2-4z" fill="#040303"/>
<path transform="translate(1020,1102)" d="m0 0h12l1 56 1 3 5 2 1 2v6l-2 2-10-1-6-5-2-5z" fill="#040303"/>
<path transform="translate(1429,978)" d="m0 0h13v57l-1 8-2 1h-10z" fill="#040303"/>
<path transform="translate(1133,1121)" d="m0 0 2 1v9l-1 2-13 2-3 5-2 32h-10l-2-1v-48l1-1h10l2 6 3-1 2-4 2-1z" fill="#040303"/>
<path transform="translate(1218,1122)" d="m0 0h12v6l3-1 4-4 2-1h10l-1 11-10 1-5 3-1 3-2 31-3 1h-8l-1-1z" fill="#040303"/>
<path transform="translate(1582,866)" d="m0 0h10l2 1 2 4 5-4 3-1h7l2 5-2 6h-7l-7 4-1 2-1 22-1 10-4 1h-7l-1-1z" fill="#040303"/>
<path transform="translate(443,901)" d="m0 0h11l7 4 5 6 1 2v12l-5 8-4 3-11 3-4-1z" fill="#D1D1E5"/>
<path transform="translate(206,900)" d="m0 0 4 1v36l-1 1h-7l-9-3-5-5-2-5v-12l4-6 4-4 5-2z" fill="#D2D0E3"/>
<path transform="translate(1010,992)" d="m0 0 11 1v52h-12l-1-1-1-28 1-23z" fill="#FA4C4F"/>
<path transform="translate(1778,994)" d="m0 0h13v49l-1 1h-11l-1-2z" fill="#040303"/>
<path transform="translate(994,1122)" d="m0 0h13v33l-1 16-11 1-1-1z" fill="#040303"/>
<path transform="translate(1472,866)" d="m0 0h12l1 1v28l-1 21h-11l-1-1z" fill="#040303"/>
<path transform="translate(1696,357)" d="m0 0h11l10 2 1 3-3 16-2 3 1-9 2-10-11-2h-10l-6 3-14 14-4-1v-16l-25 2-1 18v95h26v-60l5-16 3-3-3 10-1 7-1 58-2 6h-29v-117l1-1 23-1 5 1v16l4-2 1-2h2l2-4 11-9z" fill="#FE6B67"/>
<path transform="translate(1043,866)" d="m0 0h13v23l-1 26h-12z" fill="#040303"/>
<path transform="translate(806,1132)" d="m0 0h10l5 4 2 5v10l-3 7-5 4h-8l-5-3-3-8v-9l4-8z" fill="#F9F6F7"/>
<path transform="translate(1592 1e3)" d="m0 0h10l5 4 2 6v9l-3 7-5 4h-8l-5-3-3-7v-10l4-8z" fill="#F9F7F8"/>
<path transform="translate(1284,876)" d="m0 0h9l5 3 3 7v9l-3 7-5 4h-9l-5-4-2-6v-10l4-8z" fill="#F9F6F7"/>
<path transform="translate(1822 1e3)" d="m0 0h9l5 3 3 7v10l-3 6-5 4h-8l-4-2-3-5-1-5v-7l3-7z" fill="#FAF5F6"/>
<path transform="translate(953,1132)" d="m0 0h10l6 7 1 9-2 9-5 4-7 1-6-3-3-4-1-12 3-8z" fill="#FAF6F6"/>
<path transform="translate(1431,876)" d="m0 0h9l6 5 2 9-1 9-5 6-2 1-10-1-4-4-1-3v-14l3-5z" fill="#FAF8F8"/>
<path transform="translate(1416,359)" d="m0 0h30l1 1 1 80 3 7 6 4h19l-3 2-3 1h-10l-8-3-5-5-2-8-1-76-10-1h-16l1 84 4 15 6 8 8 6 9 2 13 1 11-1-2 2-7 2-16-1-9-3-10-8-6-9-4-13z" fill="#FE6B67"/>
<path transform="translate(1933,977)" d="m0 0 3 1v29l-1 15h-11l-1-11v-33z" fill="#040303"/>
<path transform="translate(193,391)" d="m0 0 2 2 1 4 3 3 2-4h2l1-2 3 2-1 3h-2l1 6h4l4-2v-2l3 1-5 5-6 7-2 9-2 1h-15v-26z" fill="#D2D0E4"/>
<path transform="translate(1256 1e3)" d="m0 0 9 1 5 6 1 3v9l-3 7-3 3-7 1-6-3-3-4-1-10 3-9z" fill="#FCFDFC"/>
<path transform="translate(1309,1261)" d="m0 0h8l6 5 1 11-2 8-5 4h-9l-5-4-2-11 3-9z" fill="#FCFDFC"/>
<path transform="translate(1558,1132)" d="m0 0 7 1 5 5 1 3v10l-3 7-4 3h-8l-5-4-2-4v-10l4-8z" fill="#FCFDFC"/>
<path transform="translate(1725,876)" d="m0 0 7 1 4 5 1 11-2 8-5 4h-8l-3-1-3-5-1-4v-10l4-7z" fill="#FBFCFC"/>
<path transform="translate(1837,1132)" d="m0 0 9 1 4 5 1 2v14l-6 7h-8l-5-4-2-4v-12l3-6z" fill="#FCFDFC"/>
<path transform="translate(1251,1261)" d="m0 0h9l5 6v15l-3 5-6 3-7-2-4-4-1-3v-11l3-6z" fill="#FCFDFC"/>
<path transform="translate(706 1e3)" d="m0 0h9l4 4 2 6v7l-3 8-5 3h-8l-4-4-2-5v-10l3-6z" fill="#FCFDFC"/>
<path transform="translate(1507,358)" d="m0 0h12l2 6v31l-1 81-3 1h-24l-2-2 1-14h1l1 13 24 1v-115l-14 1h-13v68l-3 12-4 6-6 4-2-1 7-5 4-10 1-6 1-63 1-7z" fill="#FE6B67"/>
<path transform="translate(1578,332)" d="m0 0h5l-4 2-17 3h-5v22l-1 1-16 1v21h16l2 4 1 60 3 12 4 6 7 7 8 4 5 1h19l10-3 6-3-1-7-3-9 1-4 6 16-1 5-14 7-8 2h-13l-9-3-10-6-7-8-4-8-2-9v-62h-16l-1-1v-23l1-1 15-1 1-22z" fill="#FE6B67"/>
<path transform="translate(279,1193)" d="m0 0h2l1 3-8 5-1 3-2 2-6 2-6 4h-3v4h-2l-2 8-3 1-4 5-1 6h-2l-2 9-5 6v3l-2 7-3 8h-2v4h-2l-1 2v-10l5-18 8-16 9-12 13-13 14-10z" fill="#FD6663"/>
<path transform="translate(269,901)" d="m0 0 8 1 5 5 2 5-1 6-4 5-4 2h-7l-6-3-3-6v-6l4-6z" fill="#040303"/>
<path transform="translate(379,901)" d="m0 0h6l6 4 3 6-1 7-5 6-9 1-6-3-3-5v-9l4-5z" fill="#040303"/>
<path transform="translate(1144 1e3)" d="m0 0h23l3 1v11l-1 1h-24l-4-2v-8z" fill="#FA454A"/>
<path transform="translate(666,972)" d="m0 0h14l3 2v8l-2 3h-10l-3 1-1 6 13 1 1 1v10l-3 1h-10l-1 38-1 1h-13l-1-29v-9l-6-3-1-5 3-5 3-3 3-10 5-5zm-2 2-8 5-2 5-1 8-5 5-1 3 1 3 6 1v33l1 6h10l1-37 1-2 13-1v-8l-1-1-13-1-1-3 2-5 3-1h9l2-1v-8l-1-1z" fill="#FE6B67"/>
<path transform="translate(1583,331)" d="m0 0h4l1 26 9 1h22l1 1v23l-1 1-16 1h-16l1 56 3 7 4 3h11l6-2h5l-1 2-9 2h-13l-5-3-3-5-1-5v-54l3-3 30-1v-21h-31l-2-2v-26z" fill="#FE6B67"/>
<path transform="translate(1181,1232)" d="m0 0h42l1 1v11l-1 1h-17v48l-1 8h-11l-3-1v-48l-1-6-18-1v-12zm40 1-44 1-3 2-1 8 18 1 1 3 1 51 11 1 1-55 18-1v-10z" fill="#FE6B67"/>
<path transform="translate(1660,861)" d="m0 0h14l5 3v11l-3 4-4 1h-11l-2-3v-15z" fill="#FDFEFD"/>
<path transform="translate(1769,1120)" d="m0 0 3 1 1 5h2l5-5 3-1h10l8 3 4 8 1 9v27l-1 6-13-1-2-37-1-2 3 1 1 9v28h11v-25l-2-15-2-5-2-2-5-1h-11l-5 2-2 4h-4v-7l-9 1v48h10l-1-10 1-17 1-6h1l-1 35h-12l-1-1-1-13v-24l1-13 1-1z" fill="#FE6B67"/>
<path transform="translate(179,337)" d="m0 0h6l5 4 2 4-1 6-4 5-2 1h-8l-5-5-1-7 4-6z" fill="#FA454A"/>
<path transform="translate(1696,357)" d="m0 0h11l10 2 1 3-3 16-2 3 1-9 2-10-11-2h-10l-6 3-14 14-4-1v-16l-25 2-1 18v47l-1 14h-1v-81l1-1 23-1 5 1v16l4-2 1-2h2l2-4 11-9z" fill="#FE6B67"/>
<path transform="translate(1315,350)" d="m0 0 2 1-5 6-1 6 3 9 9 5 9 3 24 5 16 6 6 4 8 8 6 11 2 11v12l-3 12-5 9-2 1 6-15 1-8v-13l-4-14-7-9-6-5-13-6-25-6-12-3-10-5-4-5-1-3v-9l3-6z" fill="#FE6B67"/>
<path transform="translate(1817,373)" d="m0 0 3 3 3 8 1 10 1 56 1 1 11 1 1 6v15l-3 3-10 2h-12l-8-6 2-1 7 4h11l11-1v-10l-1-10-11-1-2-4-1-54-1-12z" fill="#FE6B67"/>
<path transform="translate(161,351)" d="m0 0 2 1 4 7 10 8v18l-4-2-8-8v-7l-1-7-4-2-1-3z" fill="#F6F1F3"/>
<path transform="translate(1137,917)" d="m0 0h17l5 3-1 5-5 3h-14l-4-4 1-5z" fill="#F4F2F4"/>
<path transform="translate(1351,1229)" d="m0 0h11l2 2v54l5 6 2 1v5l-1-3-4-1v-3l-4-2-1-3v-41l1-13h-11v62l-2-3v-59z" fill="#FE6B67"/>
<path transform="translate(1596,1121)" d="m0 0h9v1l-8 2v16l1 30 9 1v-16l2-17 6-5 9-1h2v-10l-8 1-5 2-1 3-4 1-1-7 2 4h2l4-4 2-1h10l1 2v8l-2 3-10 1-5 5-1 6-1 27h-11l-2-1-1-23v-26z" fill="#FE6B67"/>
<path transform="translate(331,1204)" d="m0 0 10 2 4 1 11 5 13 7 4 5 2 7 2 1 1 6 3 2 2 10 3 3-5 2-3-11-7-14-9-10-10-6-9-4-17-4v-1z" fill="#FD6461"/>
<path transform="translate(270,334)" d="m0 0h22v8l-1 1h-21l-3-3v-5z" fill="#040303"/>
<path transform="translate(1307,1045)" d="m0 0h19l1 1v9l-4 1h-10l-6-2-1-1v-7z" fill="#FAFBFB"/>
<path transform="translate(71,334)" d="m0 0h24l1 5-1 3-4 1h-20z" fill="#040303"/>
<path transform="translate(1014,972)" d="m0 0 6 2 3 5-1 6-3 3h-8l-5-5v-6l4-4z" fill="#FB5052"/>
<path transform="translate(1143,874)" d="m0 0h8l4 5v6l-5 5h-6l-4-3-1-7 2-5z" fill="#F8F1F2"/>
<path transform="translate(287,301)" d="m0 0h4l1 6-4 4-14 5-5-1-1-1v-5l11-5z" fill="#040303"/>
<path transform="translate(270,360)" d="m0 0 5 1 16 5 1 1v7l-3 1-17-5-4-4 1-5z" fill="#040303"/>
<path transform="translate(909,891)" d="m0 0 2 1v9l-4 5-2 1h-7l-4-4v-5l5-4z" fill="#F7F2F4"/>
<path transform="translate(92,360)" d="m0 0 3 1 1 6-9 4-15 4-1-7 4-3z" fill="#040303"/>
<path transform="translate(1708,1020)" d="m0 0h5v9l-4 5-2 1h-7l-4-3v-6l5-4z" fill="#F7F2F4"/>
<path transform="translate(1278,1148)" d="m0 0h6v10l-3 3-4 2h-6l-4-4 1-6 4-3z" fill="#F6F1F3"/>
<path transform="translate(1638,1101)" d="m0 0h9v1l-11 1 1 67h9l1-18h4l-3 1v19l-3 1h-9l-2-1v-70z" fill="#FE6B67"/>
<path transform="translate(1101,1045)" d="m0 0 21 1 1 1-1 7-1 1h-18l-2-2-1-5z" fill="#FBFCFC"/>
<path transform="translate(72,301)" d="m0 0 12 3 10 5 1 5-1 2-7-1-14-5-2-5z" fill="#040303"/>
<path transform="translate(1418,1130)" d="m0 0 7 2 3 3 1 5-3 2h-18l1-6 5-5z" fill="#F9EAEB"/>
<path transform="translate(1066,1131)" d="m0 0h8l5 3 2 7-2 1h-19l1-6z" fill="#F7ECEE"/>
<path transform="translate(1545,875)" d="m0 0h9l6 7v3l-2 1h-18l-1-4z" fill="#F7F1F3"/>
<path transform="translate(1361,427)" d="m0 0 2 3-1 7-4 9-7 5-4 1h-19l-16-5-8-6-9-9-3-1-4 5-3 3-7 9 1 7-4-4 2-5 8-11 7-7 4 2 12 12 10 5 13 3h13l9-3 4-4 3-7z" fill="#FE6B67"/>
<path transform="translate(1108 1e3)" d="m0 0h8l3 2v9l-4 3h-7l-3-4v-8z" fill="#FDFEFD"/>
<path transform="translate(849,875)" d="m0 0h8l4 4 2 6-20 1-1-5 5-5z" fill="#F8F4F5"/>
<path transform="translate(998,1101)" d="m0 0 6 1 3 2v9l-4 3-8-1-2-4 1-7z" fill="#040303"/>
<path transform="translate(1925,1030)" d="m0 0h10l1 1v11l-1 1h-10l-3-3v-7z" fill="#040303"/>
<path transform="translate(1783,973)" d="m0 0 7 2 2 6-2 5-7 2-4-1-2-4v-6l3-3z" fill="#040303"/>
<path transform="translate(1474,846)" d="m0 0h9l2 2v10l-6 2-7-2-1-10z" fill="#040303"/>
<path transform="translate(1048,845)" d="m0 0 7 2 2 5-2 7-7 1-4-1-2-4 1-7z" fill="#040303"/>
<path transform="translate(1852,1101)" d="m0 0h13v71h-1v-70l-9 1-2-1v22l-1 4-4-2-5-3h-11l-6 1 4-3 3-1h9l9 4z" fill="#FE6B67"/>
<path transform="translate(1313 1e3)" d="m0 0h8l2 2v10l-3 3-6-1-4-5v-6z" fill="#FBFCFC"/>
<path transform="translate(319,1183)" d="m0 0h16l19 3v2h-8l-4-1h-36l-16 4-9 3v-2l14-5 13-3z" fill="#FD6260"/>
<path transform="translate(1728,1149)" d="m0 0h4v7l-3 5-3 2h-6l-3-4v-6l9-3z" fill="#FBFCFC"/>
<path transform="translate(1721,1131)" d="m0 0h9l2 1 1 7-8 4-12 3-6 4-1 3v8l3 6 5 3h13v2l-2 1h-13l-6-5-2-5v-12l4-5 11-4 12-3-1-5-7-1-9 2 3-3z" fill="#FE6B67"/>
<path transform="translate(1851,876)" d="m0 0h11l4 3v5l-2 1h-15l-1-5z" fill="#FBFCFC"/>
<path transform="translate(1366 1e3)" d="m0 0h9l5 5-1 4h-17v-5z" fill="#F9F8F9"/>
<path transform="translate(773,992)" d="m0 0 4 2v9h-1l-1-8-8 1-6 3-4-1-1-3-9 1v47l-2 1v-50l1-1h12l2 3 6-2z" fill="#FE6B67"/>
<path transform="translate(1144 1e3)" d="m0 0h23l3 1v11l-1 1h-24l-4-2v-8zm8 2-10 1v7l7 2h19l1-1v-9z" fill="#FE6B67"/>
<path transform="translate(1696,357)" d="m0 0h11l10 2 1 3-3 16-2 3 1-9 2-10-11-2h-10l-6 3-11 11-1-3h2l2-4 11-9z" fill="#FE6B67"/>
<path transform="translate(1295,468)" d="m0 0 9 3 7 3 13 2h23l16-2-2 2-14 3h-22l-18-4-12-6z" fill="#FE6B67"/>
<path transform="translate(1253,1259)" d="m0 0 8 1 5 6 1 4v9l-2 7-5 5h-8l-5-3h3l6 1 6-3 2-4v-15l-4-5h-9l-5 3 2-4z" fill="#FE6B67"/>
<path transform="translate(1394,1257)" d="m0 0 5 1 5 2 1 3-6-2h-11l2 5 15 4 3 3-17-3-5-2-1-5 4-4z" fill="#FE6B67"/>
<path transform="translate(1890,865)" d="m0 0h11l1 4h6l-3 3h-4l-1-5h-10l1 47 6 1v1h-7l-1-1v-49z" fill="#FE6B67"/>
<path transform="translate(279,1193)" d="m0 0h2l1 3-8 5-1 3-2 2-6 2-5 2 2-4 5-5z" fill="#FD6865"/>
<path transform="translate(1454,1142)" d="m0 0h1l6 25 3 3 11 1 1-7 2-5 1 3-3 11h-16l-1-1-4-20z" fill="#FE6B67"/>
<path transform="translate(351,1311)" d="m0 0 2 1-2 3-7 2-3 2-11 2-9-3v-1l19-2z" fill="#FC615F"/>
<path transform="translate(189,415)" d="m0 0 10 3 1 1 2-2v6h-15v-7z" fill="#E6EAF2"/>
<path transform="translate(1644,850)" d="m0 0 2 1 1 59 1 2-3 3z" fill="#FE6B67"/>
<path transform="translate(1737,468)" d="m0 0 4 2 9 5 6 2h15l8-2-1 2-9 3h-12l-11-4-8-6z" fill="#FE6B67"/>
<path transform="translate(1720,1120)" d="m0 0h14l6 3 1 2h-3v-2l-14-1-12 4-5 3 1 6-3-3 1-5z" fill="#FE6B67"/>
<path transform="translate(456,1300)" d="m0 0h1v35l1 5 9 1v1h-11l-1-3v-33z" fill="#FA454A"/>
<path transform="translate(1741,1125)" d="m0 0 3 3 2 12 1 20 3 3-5-1-1-3-1-27z" fill="#FE6B67"/>
<path transform="translate(1235,1291)" d="m0 0 11 7 3 1h8l9-1-4 3h-16l-8-5-3-3z" fill="#FE6B67"/>
<path transform="translate(1659,1164)" d="m0 0 5 4 1 2 11 1-3-5 1-2 4 5-1 4h-12l-6-7z" fill="#FE6B67"/>
<path transform="translate(1545,1168)" d="m0 0 9 3h11l6-1-3 3-4 1h-12l-7-5z" fill="#FE6B67"/>
<path transform="translate(1124,990)" d="m0 0 1 3-1 1h-15l-9 3-6 5 2-4 5-4 7-2h13z" fill="#FD6865"/>
<path transform="translate(1813,874)" d="m0 0h1l-1 9-3 16-3 1-2-5 1-4 2 3 2-7z" fill="#FE6B67"/>
<path transform="translate(1849,876)" d="m0 0 2 1-2 3v4h17v-5l3 3-2 4-17 1-3-2v-6z" fill="#FE6B67"/>
<path transform="translate(374,1234)" d="m0 0 3 1 2 4 2 1 2 10 3 3-5 2-3-11-4-8z" fill="#FC5F5D"/>
<path transform="translate(1647,1102)" d="m0 0h1v36l4-1-1 3-3 1-1-1z" fill="#FE6B67"/>
<path transform="translate(1299,1027)" d="m0 0 2 1-2 6 3 5-1 4-7 7-2 3 1-5 5-5 2-3-3-4v-6z" fill="#FD6663"/>
<path transform="translate(1844,868)" d="m0 0 2 1-8 8-3 8-1 14h-1v-15l4-9 4-5z" fill="#FD6663"/>
<path transform="translate(1409,1274)" d="m0 0h2l4 8v6l-5 8-2-1 3-4 1-10z" fill="#FE6B67"/>
<path transform="translate(1516,1157)" d="m0 0h1l-1 9-3 6-1 1h-13l-1-1v-5l3 4h7l4-1z" fill="#FE6B67"/>
<path transform="translate(126,356)" d="m0 0 2 1 3 5 5 4v2l-6-2-5-5-1-4z" fill="#F8EBEC"/>
<path transform="translate(1378,1284)" d="m0 0 5 1 9 4 6 1v1h-9l-7-3-5-1-2 2 1-4z" fill="#FE6B67"/>
<path transform="translate(1328,989)" d="m0 0h1v6l-4 1-5-2h-11l3-2h15z" fill="#FE6B67"/>
<path transform="translate(884,1023)" d="m0 0h1l1 7 3 2h7l4-2-1 3-10 3-5-5z" fill="#FE6B67"/>
<path transform="translate(154,343)" d="m0 0h5v6l-5-1v-2l-4-2z" fill="#FDFEFD"/>
<path transform="translate(216,366)" d="m0 0h11l-3 3h-7l-6 5 2-4z" fill="#D7CCDC"/>
<path transform="translate(1716,1153)" d="m0 0h1l2 7 1 2h8l-1 2-7 1-4-4-1-7z" fill="#FE6B67"/>
<path transform="translate(1271,974)" d="m0 0h1v25h-3l-1-2h3z" fill="#FE6B67"/>
<path transform="translate(1658,893)" d="m0 0h1v23l-2-1 1-2-3-1 2-1z" fill="#FE6B67"/>
<path transform="translate(186,376)" d="m0 0h1l1 5 4-4 3 1-8 7-2-1z" fill="#EBBFC6"/>
<path transform="translate(354,1187)" d="m0 0 9 2 5 2v2l-9-2-5-2z" fill="#FD6462"/>
<path transform="translate(340,1184)" d="m0 0 14 2v2h-8l-4-1v-2z" fill="#FC605F"/>
<path transform="translate(331,1204)" d="m0 0 9 2 1 2-10-1-5-1v-1z" fill="#FD6663"/>
<path transform="translate(1855,874)" d="m0 0 9 1 2 4-4-2h-8l-3-2z" fill="#FE6B67"/>
<path transform="translate(1780,889)" d="m0 0h1l-1 9-1 2h-2l-2-4v-5l2 4 2 1z" fill="#FE6B67"/>
<path transform="translate(1684,364)" d="m0 0 3 1-9 9-1-3h2l2-4z" fill="#FC5C5B"/>
</svg>
