<svg xmlns="http://www.w3.org/2000/svg" width="1200" height="600" viewBox="0 0 1200 600" role="img"><rect width="1200" height="600" fill="#ffffff"/><text x="260" y="38" font-size="30" font-weight="700" fill="#111827">Branch Mispredictions Across All 10 Workloads</text><text x="260" y="64" font-size="15" fill="#6b7280">Lower is better</text><line x1="260.0" y1="90" x2="260.0" y2="540" stroke="#d1d5db" stroke-width="1"/><text x="260.0" y="582" text-anchor="middle" font-size="12" fill="#6b7280">0</text><line x1="424.0" y1="90" x2="424.0" y2="540" stroke="#d1d5db" stroke-width="1"/><text x="424.0" y="582" text-anchor="middle" font-size="12" fill="#6b7280">1772632</text><line x1="588.0" y1="90" x2="588.0" y2="540" stroke="#d1d5db" stroke-width="1"/><text x="588.0" y="582" text-anchor="middle" font-size="12" fill="#6b7280">3545263</text><line x1="752.0" y1="90" x2="752.0" y2="540" stroke="#d1d5db" stroke-width="1"/><text x="752.0" y="582" text-anchor="middle" font-size="12" fill="#6b7280">5317895</text><line x1="916.0" y1="90" x2="916.0" y2="540" stroke="#d1d5db" stroke-width="1"/><text x="916.0" y="582" text-anchor="middle" font-size="12" fill="#6b7280">7090526</text><line x1="1080.0" y1="90" x2="1080.0" y2="540" stroke="#d1d5db" stroke-width="1"/><text x="1080.0" y="582" text-anchor="middle" font-size="12" fill="#6b7280">8863158</text><text x="246" y="126" text-anchor="end" font-size="13" fill="#111827">Branch-heavy loop</text><rect x="260" y="106" width="32.5" height="12" fill="#d97706" rx="3"/><rect x="260" y="122" width="0.3" height="12" fill="#2563eb" rx="3"/><text x="300.5" y="116" font-size="11" fill="#111827">351461</text><text x="268.3" y="132" font-size="11" fill="#111827">2999</text><text x="246" y="170" text-anchor="end" font-size="13" fill="#111827">Strided access</text><rect x="260" y="150" width="2.8" height="12" fill="#d97706" rx="3"/><rect x="260" y="166" width="3.6" height="12" fill="#2563eb" rx="3"/><text x="270.8" y="160" font-size="11" fill="#111827">30126</text><text x="271.6" y="176" font-size="11" fill="#111827">39246</text><text x="246" y="214" text-anchor="end" font-size="13" fill="#111827">Rolling hash</text><rect x="260" y="194" width="597.0" height="12" fill="#d97706" rx="3"/><rect x="260" y="210" width="1.2" height="12" fill="#2563eb" rx="3"/><text x="865.0" y="204" font-size="11" fill="#111827">6452775</text><text x="269.2" y="220" font-size="11" fill="#111827">13374</text><text x="246" y="258" text-anchor="end" font-size="13" fill="#111827">Row-major traversal</text><rect x="260" y="238" width="4.7" height="12" fill="#d97706" rx="3"/><rect x="260" y="254" width="3.0" height="12" fill="#2563eb" rx="3"/><text x="272.7" y="248" font-size="11" fill="#111827">50580</text><text x="271.0" y="264" font-size="11" fill="#111827">32430</text><text x="246" y="302" text-anchor="end" font-size="13" fill="#111827">Column-major traversal</text><rect x="260" y="282" width="4.2" height="12" fill="#d97706" rx="3"/><rect x="260" y="298" width="3.7" height="12" fill="#2563eb" rx="3"/><text x="272.2" y="292" font-size="11" fill="#111827">45431</text><text x="271.7" y="308" font-size="11" fill="#111827">39993</text><text x="246" y="346" text-anchor="end" font-size="13" fill="#111827">Small sort</text><rect x="260" y="326" width="820.0" height="12" fill="#d97706" rx="3"/><rect x="260" y="342" width="814.8" height="12" fill="#2563eb" rx="3"/><text x="1088.0" y="336" font-size="11" fill="#111827">8863158</text><text x="1082.8" y="352" font-size="11" fill="#111827">8806834</text><text x="246" y="390" text-anchor="end" font-size="13" fill="#111827">Prefix sum</text><rect x="260" y="370" width="1.9" height="12" fill="#d97706" rx="3"/><rect x="260" y="386" width="1.4" height="12" fill="#2563eb" rx="3"/><text x="269.9" y="380" font-size="11" fill="#111827">20325</text><text x="269.4" y="396" font-size="11" fill="#111827">14642</text><text x="246" y="434" text-anchor="end" font-size="13" fill="#111827">Bit mix</text><rect x="260" y="414" width="0.9" height="12" fill="#d97706" rx="3"/><rect x="260" y="430" width="0.9" height="12" fill="#2563eb" rx="3"/><text x="268.9" y="424" font-size="11" fill="#111827">9593</text><text x="268.9" y="440" font-size="11" fill="#111827">9785</text><text x="246" y="478" text-anchor="end" font-size="13" fill="#111827">Indirect gather</text><rect x="260" y="458" width="0.6" height="12" fill="#d97706" rx="3"/><rect x="260" y="474" width="0.4" height="12" fill="#2563eb" rx="3"/><text x="268.6" y="468" font-size="11" fill="#111827">7016</text><text x="268.4" y="484" font-size="11" fill="#111827">4180</text><text x="246" y="522" text-anchor="end" font-size="13" fill="#111827">2D stencil</text><rect x="260" y="502" width="3.0" height="12" fill="#d97706" rx="3"/><rect x="260" y="518" width="2.1" height="12" fill="#2563eb" rx="3"/><text x="271.0" y="512" font-size="11" fill="#111827">32764</text><text x="270.1" y="528" font-size="11" fill="#111827">22697</text><rect x="1010" y="64" width="14" height="14" fill="#d97706" rx="2"/><text x="1032" y="76" font-size="13" fill="#111827">GCC</text><rect x="1080" y="64" width="14" height="14" fill="#2563eb" rx="2"/><text x="1102" y="76" font-size="13" fill="#111827">Clang</text></svg>