<svg xmlns="http://www.w3.org/2000/svg" width="1200" height="600" viewBox="0 0 1200 600" role="img"><rect width="1200" height="600" fill="#ffffff"/><text x="260" y="38" font-size="30" font-weight="700" fill="#111827">IPC Across All 10 Workloads</text><text x="260" y="64" font-size="15" fill="#6b7280">Higher is better</text><line x1="260.0" y1="90" x2="260.0" y2="540" stroke="#d1d5db" stroke-width="1"/><text x="260.0" y="582" text-anchor="middle" font-size="12" fill="#6b7280">0.00</text><line x1="424.0" y1="90" x2="424.0" y2="540" stroke="#d1d5db" stroke-width="1"/><text x="424.0" y="582" text-anchor="middle" font-size="12" fill="#6b7280">1.26</text><line x1="588.0" y1="90" x2="588.0" y2="540" stroke="#d1d5db" stroke-width="1"/><text x="588.0" y="582" text-anchor="middle" font-size="12" fill="#6b7280">2.51</text><line x1="752.0" y1="90" x2="752.0" y2="540" stroke="#d1d5db" stroke-width="1"/><text x="752.0" y="582" text-anchor="middle" font-size="12" fill="#6b7280">3.77</text><line x1="916.0" y1="90" x2="916.0" y2="540" stroke="#d1d5db" stroke-width="1"/><text x="916.0" y="582" text-anchor="middle" font-size="12" fill="#6b7280">5.02</text><line x1="1080.0" y1="90" x2="1080.0" y2="540" stroke="#d1d5db" stroke-width="1"/><text x="1080.0" y="582" text-anchor="middle" font-size="12" fill="#6b7280">6.28</text><text x="246" y="126" text-anchor="end" font-size="13" fill="#111827">Branch-heavy loop</text><rect x="260" y="106" width="599.7" height="12" fill="#d97706" rx="3"/><rect x="260" y="122" width="820.0" height="12" fill="#2563eb" rx="3"/><text x="867.7" y="116" font-size="11" fill="#111827">4.59</text><text x="1088.0" y="132" font-size="11" fill="#111827">6.28</text><text x="246" y="170" text-anchor="end" font-size="13" fill="#111827">Strided access</text><rect x="260" y="150" width="45.0" height="12" fill="#d97706" rx="3"/><rect x="260" y="166" width="27.6" height="12" fill="#2563eb" rx="3"/><text x="313.0" y="160" font-size="11" fill="#111827">0.34</text><text x="295.6" y="176" font-size="11" fill="#111827">0.21</text><text x="246" y="214" text-anchor="end" font-size="13" fill="#111827">Rolling hash</text><rect x="260" y="194" width="250.9" height="12" fill="#d97706" rx="3"/><rect x="260" y="210" width="252.0" height="12" fill="#2563eb" rx="3"/><text x="518.9" y="204" font-size="11" fill="#111827">1.92</text><text x="520.0" y="220" font-size="11" fill="#111827">1.93</text><text x="246" y="258" text-anchor="end" font-size="13" fill="#111827">Row-major traversal</text><rect x="260" y="238" width="316.4" height="12" fill="#d97706" rx="3"/><rect x="260" y="254" width="224.9" height="12" fill="#2563eb" rx="3"/><text x="584.4" y="248" font-size="11" fill="#111827">2.42</text><text x="492.9" y="264" font-size="11" fill="#111827">1.72</text><text x="246" y="302" text-anchor="end" font-size="13" fill="#111827">Column-major traversal</text><rect x="260" y="282" width="36.7" height="12" fill="#d97706" rx="3"/><rect x="260" y="298" width="24.9" height="12" fill="#2563eb" rx="3"/><text x="304.7" y="292" font-size="11" fill="#111827">0.28</text><text x="292.9" y="308" font-size="11" fill="#111827">0.19</text><text x="246" y="346" text-anchor="end" font-size="13" fill="#111827">Small sort</text><rect x="260" y="326" width="277.6" height="12" fill="#d97706" rx="3"/><rect x="260" y="342" width="251.5" height="12" fill="#2563eb" rx="3"/><text x="545.6" y="336" font-size="11" fill="#111827">2.13</text><text x="519.5" y="352" font-size="11" fill="#111827">1.93</text><text x="246" y="390" text-anchor="end" font-size="13" fill="#111827">Prefix sum</text><rect x="260" y="370" width="365.6" height="12" fill="#d97706" rx="3"/><rect x="260" y="386" width="251.7" height="12" fill="#2563eb" rx="3"/><text x="633.6" y="380" font-size="11" fill="#111827">2.80</text><text x="519.7" y="396" font-size="11" fill="#111827">1.93</text><text x="246" y="434" text-anchor="end" font-size="13" fill="#111827">Bit mix</text><rect x="260" y="414" width="149.4" height="12" fill="#d97706" rx="3"/><rect x="260" y="430" width="135.1" height="12" fill="#2563eb" rx="3"/><text x="417.4" y="424" font-size="11" fill="#111827">1.14</text><text x="403.1" y="440" font-size="11" fill="#111827">1.03</text><text x="246" y="478" text-anchor="end" font-size="13" fill="#111827">Indirect gather</text><rect x="260" y="458" width="353.7" height="12" fill="#d97706" rx="3"/><rect x="260" y="474" width="262.8" height="12" fill="#2563eb" rx="3"/><text x="621.7" y="468" font-size="11" fill="#111827">2.71</text><text x="530.8" y="484" font-size="11" fill="#111827">2.01</text><text x="246" y="522" text-anchor="end" font-size="13" fill="#111827">2D stencil</text><rect x="260" y="502" width="544.4" height="12" fill="#d97706" rx="3"/><rect x="260" y="518" width="431.5" height="12" fill="#2563eb" rx="3"/><text x="812.4" y="512" font-size="11" fill="#111827">4.17</text><text x="699.5" y="528" font-size="11" fill="#111827">3.30</text><rect x="1010" y="64" width="14" height="14" fill="#d97706" rx="2"/><text x="1032" y="76" font-size="13" fill="#111827">GCC</text><rect x="1080" y="64" width="14" height="14" fill="#2563eb" rx="2"/><text x="1102" y="76" font-size="13" fill="#111827">Clang</text></svg>