<svg xmlns="http://www.w3.org/2000/svg" width="1100" height="590" viewBox="0 0 1100 590" role="img"><rect width="1100" height="590" fill="#ffffff"/><text x="260" y="36" font-size="30" font-weight="700" fill="#111827">Winner Heatmap Across 10 Workloads</text><text x="260" y="62" font-size="15" fill="#6b7280">Green = lower runtime for GCC, Blue = lower runtime for Clang, Gray = practical tie (&lt;1%)</text><text x="246" y="118" text-anchor="end" font-size="13" fill="#111827">Branch-heavy loop</text><rect x="260" y="98" width="420" height="24" fill="#2563eb" rx="6"/><text x="272" y="115" font-size="13" fill="#ffffff">Clang</text><text x="620" y="115" font-size="12" fill="#ffffff">21.34%</text><text x="246" y="164" text-anchor="end" font-size="13" fill="#111827">Strided access</text><rect x="260" y="144" width="420" height="24" fill="#16a34a" rx="6"/><text x="272" y="161" font-size="13" fill="#ffffff">GCC</text><text x="620" y="161" font-size="12" fill="#ffffff">3.99%</text><text x="246" y="210" text-anchor="end" font-size="13" fill="#111827">Rolling hash</text><rect x="260" y="190" width="420" height="24" fill="#16a34a" rx="6"/><text x="272" y="207" font-size="13" fill="#ffffff">GCC</text><text x="620" y="207" font-size="12" fill="#ffffff">1.95%</text><text x="246" y="256" text-anchor="end" font-size="13" fill="#111827">Row-major traversal</text><rect x="260" y="236" width="420" height="24" fill="#9ca3af" rx="6"/><text x="272" y="253" font-size="13" fill="#ffffff">Tie</text><text x="620" y="253" font-size="12" fill="#ffffff">0.26%</text><text x="246" y="302" text-anchor="end" font-size="13" fill="#111827">Column-major traversal</text><rect x="260" y="282" width="420" height="24" fill="#16a34a" rx="6"/><text x="272" y="299" font-size="13" fill="#ffffff">GCC</text><text x="620" y="299" font-size="12" fill="#ffffff">3.10%</text><text x="246" y="348" text-anchor="end" font-size="13" fill="#111827">Small sort</text><rect x="260" y="328" width="420" height="24" fill="#2563eb" rx="6"/><text x="272" y="345" font-size="13" fill="#ffffff">Clang</text><text x="620" y="345" font-size="12" fill="#ffffff">9.61%</text><text x="246" y="394" text-anchor="end" font-size="13" fill="#111827">Prefix sum</text><rect x="260" y="374" width="420" height="24" fill="#9ca3af" rx="6"/><text x="272" y="391" font-size="13" fill="#ffffff">Tie</text><text x="620" y="391" font-size="12" fill="#ffffff">0.25%</text><text x="246" y="440" text-anchor="end" font-size="13" fill="#111827">Bit mix</text><rect x="260" y="420" width="420" height="24" fill="#9ca3af" rx="6"/><text x="272" y="437" font-size="13" fill="#ffffff">Tie</text><text x="620" y="437" font-size="12" fill="#ffffff">0.15%</text><text x="246" y="486" text-anchor="end" font-size="13" fill="#111827">Indirect gather</text><rect x="260" y="466" width="420" height="24" fill="#2563eb" rx="6"/><text x="272" y="483" font-size="13" fill="#ffffff">Clang</text><text x="620" y="483" font-size="12" fill="#ffffff">2.83%</text><text x="246" y="532" text-anchor="end" font-size="13" fill="#111827">2D stencil</text><rect x="260" y="512" width="420" height="24" fill="#16a34a" rx="6"/><text x="272" y="529" font-size="13" fill="#ffffff">GCC</text><text x="620" y="529" font-size="12" fill="#ffffff">19.51%</text><rect x="260" y="562" width="14" height="14" fill="#16a34a" rx="2"/><text x="282" y="574" font-size="13" fill="#111827">GCC win</text><rect x="360" y="562" width="14" height="14" fill="#2563eb" rx="2"/><text x="382" y="574" font-size="13" fill="#111827">Clang win</text><rect x="480" y="562" width="14" height="14" fill="#9ca3af" rx="2"/><text x="502" y="574" font-size="13" fill="#111827">Tie</text></svg>